<?xml version="1.0" encoding="utf-8"?>
<svg xmlns="http://www.w3.org/2000/svg" viewBox="0 0 500 500" xmlns:bx="https://boxy-svg.com" width="500px" height="500px"><defs><bx:export><bx:file format="svg"/></bx:export></defs><g id="svg" transform="matrix(1, 0, 0, 1, -106.941833, 83.351379)"><g id="svgg" transform="matrix(1, 0, 0, 1, 145.783142, -53.012043)"><path id="path0" d="M179.537 149.100 C 178.980 149.705,177.461 151.811,176.162 153.780 C 174.863 155.749,172.174 159.079,170.186 161.180 C 164.274 167.429,164.822 166.673,152.614 185.400 C 142.019 201.652,136.042 206.286,130.449 202.585 C 129.152 201.727,128.552 201.562,127.510 201.779 C 120.937 203.150,117.684 202.271,115.243 198.467 C 114.535 197.364,113.338 195.990,112.582 195.414 C 111.065 194.256,108.805 191.944,108.802 191.546 C 108.798 190.948,105.455 186.349,104.348 185.418 C 101.607 183.111,100.266 184.267,94.205 194.159 C 89.626 201.632,82.531 210.071,78.822 212.457 C 76.881 213.704,75.881 213.836,73.582 213.147 C 69.773 212.006,63.060 218.930,59.255 227.925 C 57.225 232.725,54.224 237.034,49.176 242.400 C 46.057 245.714,42.000 250.900,42.000 251.570 C 42.000 252.988,47.518 248.938,51.000 244.964 C 52.320 243.458,55.029 240.419,57.021 238.212 C 59.012 236.006,62.970 231.500,65.816 228.200 C 72.099 220.916,71.559 221.339,74.866 221.102 C 77.867 220.888,79.425 220.113,80.024 218.536 C 80.238 217.975,81.996 215.869,83.930 213.857 C 86.053 211.651,88.371 208.692,89.775 206.400 C 97.387 193.967,100.105 192.926,106.989 199.811 C 112.353 205.174,112.942 207.953,110.022 214.104 C 107.477 219.464,107.269 220.377,108.368 221.371 C 110.327 223.144,108.792 226.707,104.800 229.653 C 98.848 234.045,98.170 235.071,97.605 240.555 C 96.895 247.433,92.848 251.476,76.315 261.820 C 74.246 263.115,73.766 264.400,75.351 264.400 C 77.248 264.400,82.422 261.889,87.600 258.456 C 89.470 257.215,91.167 256.130,91.371 256.043 C 91.576 255.957,92.476 255.326,93.373 254.643 C 94.269 253.959,96.834 252.178,99.072 250.684 C 104.117 247.317,105.910 245.271,115.448 232.000 C 130.033 211.708,130.094 211.644,133.366 213.011 C 135.040 213.711,136.771 213.413,140.200 211.833 C 141.300 211.326,142.638 210.774,143.172 210.606 C 146.938 209.422,150.771 205.287,156.136 196.621 C 157.752 194.010,160.757 190.831,164.536 187.734 C 169.460 183.697,170.759 182.371,171.715 180.400 C 177.517 168.446,182.166 167.413,189.841 176.372 C 191.456 178.258,193.727 180.630,194.889 181.645 C 196.207 182.797,197.439 184.375,198.170 185.845 C 198.813 187.140,200.024 188.985,200.860 189.945 C 203.286 192.730,203.385 195.460,201.231 200.103 C 200.593 201.476,199.745 203.410,199.345 204.400 C 198.844 205.640,197.245 207.583,194.209 210.644 C 189.496 215.394,187.966 217.595,188.733 218.520 C 189.295 219.196,195.571 219.888,204.354 220.243 C 213.039 220.593,213.595 221.133,210.897 226.600 C 207.134 234.225,202.971 239.278,195.737 245.002 C 190.875 248.849,190.921 252.321,195.800 249.767 C 198.640 248.280,202.344 246.900,204.200 246.639 C 208.650 246.013,212.053 244.523,215.231 241.811 C 216.411 240.803,218.044 239.779,218.861 239.534 C 219.677 239.290,221.024 238.395,221.854 237.545 C 223.345 236.018,223.398 236.000,226.422 236.000 C 233.278 236.000,234.041 238.768,229.343 246.600 C 226.216 251.814,226.430 252.302,230.918 250.200 C 232.562 249.430,234.423 248.796,235.054 248.791 C 236.758 248.778,239.107 247.566,241.800 245.309 C 249.393 238.946,256.337 238.422,267.888 243.341 C 269.256 243.923,270.572 244.400,270.813 244.400 C 272.367 244.400,286.668 252.582,295.555 258.555 C 301.329 262.437,303.198 263.211,300.176 260.469 C 297.992 258.488,288.565 250.019,287.317 248.918 C 286.767 248.433,279.811 242.191,271.859 235.047 C 263.906 227.903,256.225 221.168,254.788 220.082 C 249.721 216.249,249.139 214.720,251.713 212.000 C 255.005 208.521,258.618 203.959,260.400 201.030 C 262.368 197.796,262.895 197.174,267.254 192.936 C 271.382 188.922,271.915 188.940,275.412 193.215 C 276.663 194.744,278.837 196.899,280.242 198.003 C 285.730 202.316,286.406 205.702,282.727 210.458 C 282.107 211.259,281.600 212.146,281.600 212.428 C 281.600 213.382,278.745 217.095,276.566 218.976 C 272.809 222.219,274.589 222.682,284.972 221.159 C 288.174 220.689,294.963 221.203,295.732 221.973 C 297.650 223.891,294.518 231.053,290.712 233.456 C 289.143 234.446,287.908 236.495,288.286 237.479 C 288.898 239.075,298.853 236.158,307.761 231.772 C 311.026 230.164,311.951 231.178,311.212 235.554 C 310.149 241.846,310.111 241.358,311.644 241.051 C 313.732 240.634,316.007 239.298,318.277 237.157 C 322.329 233.336,323.561 233.503,333.185 239.189 C 334.387 239.899,336.907 241.299,338.785 242.301 C 342.871 244.480,344.301 245.438,350.702 250.287 C 357.281 255.269,357.806 255.247,354.150 250.142 C 346.494 239.450,327.377 220.613,317.800 214.323 C 313.921 211.776,313.190 211.649,307.953 212.610 C 305.862 212.993,304.790 212.285,299.980 207.339 C 294.870 202.084,282.556 185.861,279.716 180.643 C 279.050 179.419,273.538 174.000,272.959 174.000 C 272.667 174.000,272.224 174.381,271.975 174.846 C 271.726 175.312,270.865 176.248,270.061 176.927 C 266.359 180.054,264.795 182.126,262.133 187.430 C 259.005 193.665,257.688 195.402,253.730 198.509 C 251.343 200.384,250.452 201.437,248.630 204.532 C 244.763 211.103,243.918 211.568,239.690 209.456 C 237.872 208.548,236.157 208.029,234.400 207.854 C 228.600 207.276,226.799 206.021,224.229 200.772 C 223.277 198.827,221.517 195.922,220.320 194.318 C 219.122 192.713,217.538 190.511,216.800 189.425 C 215.547 187.580,210.549 181.244,209.996 180.800 C 209.859 180.690,207.354 177.810,204.428 174.400 C 199.640 168.818,197.713 166.355,190.033 156.000 C 184.485 148.520,181.735 146.712,179.537 149.100 M79.600 281.378 C 69.603 283.635,64.861 296.122,69.113 309.000 C 73.781 323.139,94.800 322.493,99.773 308.058 C 100.660 305.481,100.655 305.476,96.456 304.823 C 94.775 304.562,92.748 304.205,91.951 304.029 C 90.124 303.628,89.379 304.044,88.803 305.790 C 86.421 313.010,78.800 308.563,78.800 299.953 C 78.800 291.308,86.773 286.871,88.797 294.388 C 89.291 296.222,89.717 296.430,92.030 295.965 C 93.003 295.770,95.065 295.418,96.610 295.184 C 100.605 294.579,100.661 294.521,99.773 291.942 C 96.856 283.476,88.860 279.289,79.600 281.378 M233.400 281.385 C 222.484 283.614,217.241 298.390,223.026 310.619 C 228.815 322.855,249.445 321.912,254.082 309.200 C 260.316 292.105,249.849 278.027,233.400 281.385 M308.600 281.376 C 298.653 283.370,293.755 295.958,297.897 308.881 C 300.903 318.262,312.913 322.305,320.845 316.606 C 323.524 314.681,324.534 314.830,324.862 317.200 C 324.993 318.150,325.130 318.200,327.600 318.200 L 330.200 318.200 330.340 309.148 C 330.435 302.994,330.342 300.011,330.050 299.831 C 329.814 299.685,326.266 299.517,322.166 299.457 C 313.633 299.332,313.600 299.343,313.600 302.380 C 313.600 304.432,313.956 304.936,315.700 305.352 C 317.915 305.882,315.847 309.200,313.302 309.200 C 308.866 309.200,306.348 302.138,308.407 295.472 C 310.214 289.622,315.629 288.932,317.982 294.252 L 318.782 296.060 320.978 295.785 C 329.682 294.698,330.303 294.167,328.246 289.567 C 325.175 282.697,317.655 279.562,308.600 281.376 M113.600 299.989 L 113.600 318.400 119.204 318.400 L 124.808 318.400 124.704 300.100 L 124.600 281.800 119.100 281.689 L 113.600 281.577 113.600 299.989 M138.400 300.000 L 138.400 318.400 152.414 318.400 L 166.428 318.400 166.314 314.300 L 166.200 310.200 158.430 310.091 C 149.653 309.968,149.600 309.951,149.600 307.180 C 149.600 304.026,149.673 304.000,158.629 304.000 L 166.400 304.000 166.400 300.000 L 166.400 296.000 158.629 296.000 C 149.673 296.000,149.600 295.974,149.600 292.820 C 149.600 290.049,149.653 290.032,158.430 289.909 L 166.200 289.800 166.314 285.700 L 166.428 281.600 152.414 281.600 L 138.400 281.600 138.400 300.000 M180.000 300.000 L 180.000 318.400 194.013 318.400 L 208.025 318.400 207.913 313.700 L 207.800 309.000 200.000 308.895 C 193.240 308.804,192.133 308.701,191.700 308.119 C 191.324 307.614,191.200 304.237,191.200 294.524 L 191.200 281.600 185.600 281.600 L 180.000 281.600 180.000 300.000 M241.433 291.798 C 244.090 293.825,245.246 300.176,243.754 304.555 C 241.584 310.923,234.754 310.835,232.679 304.412 C 229.908 295.829,235.726 287.445,241.433 291.798 M268.176 295.718 C 268.063 296.013,268.022 298.132,268.085 300.427 L 268.200 304.600 276.000 304.600 L 283.800 304.600 283.800 300.000 L 283.800 295.400 276.091 295.291 C 269.942 295.205,268.340 295.291,268.176 295.718 " stroke="none" fill="#294466" fill-rule="evenodd"/><path id="path1" d="M 184.2 60.262 C 183.32 60.333 181.7 60.574 180.6 60.798 C 179.5 61.021 177.34 61.374 175.8 61.58 C 171.243 62.192 167.929 62.811 165.8 63.449 C 164.7 63.778 163.08 64.243 162.2 64.482 C 159.49 65.218 152.267 67.603 151 68.181 C 150.34 68.482 148.583 69.216 147.096 69.811 C 144.125 71 131.936 77.084 131.606 77.542 C 131.493 77.7 129.96 78.716 128.2 79.8 C 126.44 80.884 124.19 82.359 123.2 83.078 C 119.065 86.08 118.334 86.63 117.683 87.222 C 117.307 87.564 115.11 89.479 112.8 91.476 C 105.882 97.458 97.351 106.909 93.2 113.192 C 92.65 114.024 91.488 115.762 90.617 117.053 C 89.747 118.344 88.702 120.004 88.294 120.742 C 87.887 121.479 87.373 122.289 87.151 122.542 C 86.598 123.171 82.861 130.473 80.468 135.6 C 78.75 139.282 74.826 150.684 74 154.4 C 73.73 155.61 73.262 157.439 72.958 158.465 C 69.177 171.248 68.779 205.6 72.412 205.6 C 73.01 205.6 74.058 205.712 74.739 205.848 C 76.833 206.267 86.229 195.024 89.999 187.591 C 90.499 186.606 91.038 185.71 91.198 185.6 C 91.358 185.49 91.767 184.86 92.109 184.2 C 97.053 174.635 106.669 175.261 113.39 185.585 C 114.809 187.764 116.506 189.844 117.322 190.403 C 118.112 190.944 119.251 192.167 119.854 193.119 C 121.242 195.316 121.864 195.639 123.826 195.184 C 126.711 194.515 130.677 194.721 132.462 195.632 C 134.951 196.901 137.085 195.601 140.396 190.8 C 140.927 190.03 141.48 189.31 141.625 189.2 C 141.961 188.945 148.042 179.889 150.354 176.199 C 151.319 174.66 152.842 172.23 153.738 170.8 C 154.633 169.37 155.734 167.719 156.183 167.131 C 156.632 166.542 157.54 165.3 158.2 164.37 C 158.86 163.44 161.35 160.592 163.732 158.04 C 166.115 155.488 169.401 151.408 171.035 148.972 C 179.434 136.453 186.014 137.937 198.076 155.071 C 202.51 161.369 206.694 166.608 213.4 174.261 C 217.671 179.136 217.972 179.507 221.194 183.872 C 229.346 194.914 229.811 195.613 230.827 198.334 C 231.641 200.514 232.164 200.8 235.334 200.8 C 237.448 200.8 238.608 201.012 239.704 201.6 C 241.786 202.716 241.727 202.749 243.734 199.3 C 244.726 197.595 246.136 195.72 246.869 195.133 C 247.601 194.546 249.146 193.326 250.302 192.422 C 252.779 190.485 253.517 189.382 256.608 183.002 C 258.646 178.793 259.343 177.784 262.278 174.788 C 264.119 172.909 265.959 170.822 266.367 170.15 C 268.809 166.135 273.355 165.475 277.4 168.548 C 279.886 170.437 285.107 175.855 285.832 177.3 C 286.525 178.678 289.23 182.863 289.647 183.2 C 289.783 183.31 290.413 184.137 291.047 185.038 C 292.119 186.561 295.957 191.68 296.725 192.61 C 296.912 192.836 297.402 193.556 297.815 194.21 C 300.079 197.798 307.896 205.742 308.773 205.347 C 311.115 204.29 314.973 204.894 318.904 206.932 C 321.639 208.35 321.395 208.509 322.197 204.791 C 323.45 198.982 323.765 172.685 322.604 170.806 C 322.44 170.54 322.07 168.765 321.783 166.861 C 320.69 159.618 320.384 157.917 320.058 157.268 C 319.873 156.901 319.408 155.25 319.025 153.6 C 318.34 150.648 315.929 142.965 315.197 141.4 C 314.991 140.96 314.477 139.7 314.054 138.6 C 313.189 136.346 308.604 126.846 306.91 123.8 C 305.19 120.705 303.463 117.821 303.198 117.6 C 303.067 117.49 302.414 116.59 301.748 115.6 C 298.21 110.34 296.217 107.746 291.95 102.844 C 288.698 99.108 279.978 90.58 277.8 89.004 C 276.92 88.368 275.66 87.364 275 86.773 C 273.86 85.752 271.596 84.12 267.6 81.437 C 266.61 80.773 265.562 79.997 265.271 79.714 C 264.981 79.432 264.548 79.2 264.309 79.2 C 264.071 79.2 263.296 78.758 262.587 78.218 C 260.846 76.889 250.647 71.67 246.2 69.832 C 244.22 69.013 242.24 68.183 241.8 67.986 C 240.558 67.432 232.831 64.958 230.6 64.4 C 229.5 64.126 227.43 63.58 226 63.189 C 224.57 62.797 222.14 62.283 220.6 62.046 C 219.06 61.809 216.63 61.411 215.2 61.161 C 209.854 60.228 206.73 60.051 196.4 60.092 C 190.57 60.115 185.08 60.192 184.2 60.262" stroke="none" fill="#f38434" fill-rule="evenodd"/><path id="path3" d="M 182.6 59.616 C 169.376 61.218 160.759 63.302 150.226 67.445 C 145.818 69.18 133.683 75.093 131.2 76.717 C 130.21 77.365 128.41 78.533 127.2 79.313 C 103.115 94.837 83.913 119.762 75.21 146.8 C 73.027 153.582 73.134 153.168 71.457 161.4 C 68.668 175.098 68.059 193.794 70.075 203.834 C 70.602 206.456 70.797 206.623 73.696 206.948 C 75.93 207.199 76.035 207.166 77.629 205.726 C 80.885 202.785 91.2 188.931 91.2 187.499 C 91.2 186.893 94.276 182.641 95.66 181.335 C 101.15 176.152 106.737 177.51 112.014 185.311 C 113.451 187.436 115.611 190.126 116.814 191.287 C 118.016 192.449 119.519 194.096 120.154 194.946 C 121.294 196.473 121.331 196.488 123.354 196.229 C 129.413 195.453 129.767 195.466 132.072 196.557 C 134.91 197.899 134.89 197.902 137.064 195.9 C 140.377 192.849 145.29 186.045 152.4 174.659 C 156.691 167.788 160.345 162.934 164.746 158.257 C 167.197 155.653 170.352 151.773 171.757 149.636 C 179.468 137.904 184.613 138.746 195.679 153.555 C 197.916 156.55 200.749 160.332 201.973 161.96 C 203.198 163.588 206.453 167.548 209.208 170.76 C 217.433 180.353 219.762 183.233 222.84 187.621 C 224.452 189.92 226.435 192.65 227.248 193.689 C 228.06 194.727 229.046 196.437 229.439 197.489 C 230.85 201.267 231.941 201.993 236.215 201.998 C 237.437 201.999 238.849 202.315 239.8 202.8 C 241.905 203.873 242.559 203.566 243.88 200.887 C 245.022 198.572 247.752 195.558 251.491 192.489 C 253.528 190.816 255.436 188.015 257 184.4 C 258.651 180.584 260.666 177.676 263.871 174.483 C 265.702 172.659 267.2 170.913 267.2 170.603 C 267.2 170.294 267.831 169.559 268.603 168.971 C 273.361 165.341 279.265 169.15 286.941 180.8 C 293.346 190.519 306.354 206.452 307.829 206.383 C 308.033 206.373 309.01 206.208 310 206.015 C 312.444 205.539 315.198 206.118 318.521 207.807 C 320.029 208.573 321.498 209.2 321.784 209.2 C 324.049 209.2 325.236 181.196 323.439 170.2 C 323.115 168.22 322.655 165.43 322.417 164 C 320.277 151.165 313.69 133.185 307.271 122.659 C 306.352 121.152 305.6 119.859 305.6 119.787 C 305.6 119.509 300.584 112.077 298.859 109.8 C 292.88 101.908 284.382 93.084 277.212 87.322 C 273.387 84.248 263.91 77.6 263.353 77.6 C 263.227 77.6 262.646 77.261 262.062 76.847 C 256.218 72.701 240.059 65.765 230.7 63.385 C 229.435 63.063 227.275 62.515 225.9 62.166 C 213.695 59.073 195.79 58.018 182.6 59.616 M 209.8 60.379 C 211.34 60.56 213.77 60.912 215.2 61.161 C 216.63 61.411 219.06 61.809 220.6 62.046 C 222.14 62.283 224.57 62.797 226 63.189 C 227.43 63.58 229.5 64.126 230.6 64.4 C 232.831 64.958 240.558 67.432 241.8 67.986 C 242.24 68.183 244.22 69.013 246.2 69.832 C 250.647 71.67 260.846 76.889 262.587 78.218 C 263.296 78.758 264.071 79.2 264.309 79.2 C 264.548 79.2 264.981 79.432 265.271 79.714 C 265.562 79.997 266.61 80.773 267.6 81.437 C 271.596 84.12 273.86 85.752 275 86.773 C 275.66 87.364 276.92 88.368 277.8 89.004 C 279.978 90.58 288.698 99.108 291.95 102.844 C 296.217 107.746 298.21 110.34 301.748 115.6 C 302.414 116.59 303.067 117.49 303.198 117.6 C 303.463 117.821 305.19 120.705 306.91 123.8 C 308.604 126.846 313.189 136.346 314.054 138.6 C 314.477 139.7 314.991 140.96 315.197 141.4 C 315.929 142.965 318.34 150.648 319.025 153.6 C 319.408 155.25 319.873 156.901 320.058 157.268 C 320.384 157.917 320.69 159.618 321.783 166.861 C 322.07 168.765 322.44 170.54 322.604 170.806 C 323.765 172.685 323.45 198.982 322.197 204.791 C 321.395 208.509 321.639 208.35 318.904 206.932 C 314.973 204.894 311.115 204.29 308.773 205.347 C 307.896 205.742 300.079 197.798 297.815 194.21 C 297.402 193.556 296.912 192.836 296.725 192.61 C 295.957 191.68 292.119 186.561 291.047 185.038 C 290.413 184.137 289.783 183.31 289.647 183.2 C 289.23 182.863 286.525 178.678 285.832 177.3 C 285.107 175.855 279.886 170.437 277.4 168.548 C 273.355 165.475 268.809 166.135 266.367 170.15 C 265.959 170.822 264.119 172.909 262.278 174.788 C 259.343 177.784 258.646 178.793 256.608 183.002 C 253.517 189.382 252.779 190.485 250.302 192.422 C 249.146 193.326 247.601 194.546 246.869 195.133 C 246.136 195.72 244.726 197.595 243.734 199.3 C 241.727 202.749 241.786 202.716 239.704 201.6 C 238.608 201.012 237.448 200.8 235.334 200.8 C 232.164 200.8 231.641 200.514 230.827 198.334 C 229.811 195.613 229.346 194.914 221.194 183.872 C 217.972 179.507 217.671 179.136 213.4 174.261 C 206.694 166.608 202.51 161.369 198.076 155.071 C 186.014 137.937 179.434 136.453 171.035 148.972 C 169.401 151.408 166.115 155.488 163.732 158.04 C 161.35 160.592 158.86 163.44 158.2 164.37 C 157.54 165.3 156.632 166.542 156.183 167.131 C 155.734 167.719 154.633 169.37 153.738 170.8 C 152.842 172.23 151.319 174.66 150.354 176.199 C 148.042 179.889 141.961 188.945 141.625 189.2 C 141.48 189.31 140.927 190.03 140.396 190.8 C 137.085 195.601 134.951 196.901 132.462 195.632 C 130.677 194.721 126.711 194.515 123.826 195.184 C 121.864 195.639 121.242 195.316 119.854 193.119 C 119.251 192.167 118.112 190.944 117.322 190.403 C 116.506 189.844 114.809 187.764 113.39 185.585 C 106.669 175.261 97.053 174.635 92.109 184.2 C 91.767 184.86 91.358 185.49 91.198 185.6 C 91.038 185.71 90.499 186.606 89.999 187.591 C 86.229 195.024 76.833 206.267 74.739 205.848 C 74.058 205.712 73.01 205.6 72.412 205.6 C 71.127 205.6 70.714 203.418 69.933 192.49 C 69.297 183.59 70.917 165.367 72.958 158.465 C 73.262 157.439 73.73 155.61 74 154.4 C 74.826 150.684 78.75 139.282 80.468 135.6 C 82.861 130.473 86.598 123.171 87.151 122.542 C 87.373 122.289 87.887 121.479 88.294 120.742 C 88.702 120.004 89.747 118.344 90.617 117.053 C 91.488 115.762 92.65 114.024 93.2 113.192 C 97.351 106.909 105.882 97.458 112.8 91.476 C 115.11 89.479 117.307 87.564 117.683 87.222 C 118.334 86.63 119.065 86.08 123.2 83.078 C 124.19 82.359 126.44 80.884 128.2 79.8 C 129.96 78.716 131.493 77.7 131.606 77.542 C 131.936 77.084 144.125 71 147.096 69.811 C 148.583 69.216 150.34 68.482 151 68.181 C 152.267 67.603 159.49 65.218 162.2 64.482 C 163.08 64.243 164.7 63.778 165.8 63.449 C 167.929 62.811 171.243 62.192 175.8 61.58 C 177.34 61.374 179.5 61.021 180.6 60.798 C 184.349 60.035 204.422 59.747 209.8 60.379 M 171.929 210.072 C 168.998 212.532 165.117 215.883 163.304 217.518 C 159.713 220.757 159.635 220.778 156.2 219.464 C 136.862 212.061 135.907 212.393 142.606 224.2 C 147.575 232.957 147.536 232.645 144.077 236.2 C 141.183 239.174 134.755 246.629 132.456 249.677 C 129.513 253.578 130.617 254.893 135.253 253.01 C 136.653 252.441 139.868 251.421 142.399 250.742 C 144.929 250.064 148.581 249.087 150.512 248.572 C 155.144 247.336 154.53 246.733 159.98 257.858 C 165.389 268.898 166.06 270 167.378 270 C 168.875 270 169.092 269.35 170.188 261.593 C 171.135 254.887 172.105 248.262 172.624 244.939 C 172.867 243.389 172.654 243.469 180.978 241.784 C 196.717 238.596 197.953 237.704 191 234.546 C 188.8 233.546 185.74 232.145 184.2 231.432 C 182.66 230.719 180.35 229.705 179.067 229.18 C 176.303 228.049 175.823 227.361 176.36 225.298 C 177.709 220.111 179.293 207.407 178.729 206.3 C 178.111 205.088 177.393 205.487 171.929 210.072 M 173.6 214.376 C 173.6 214.803 173.42 215.264 173.2 215.4 C 172.98 215.536 172.8 216.007 172.8 216.447 C 172.8 216.887 172.98 217.136 173.2 217 C 173.42 216.864 173.6 216.365 173.6 215.891 C 173.6 215.094 173.65 215.078 174.251 215.68 C 174.945 216.374 174.797 217.382 172.938 224.6 C 172.375 226.787 171.134 228.8 170.348 228.8 C 170.176 228.8 169.376 229.247 168.57 229.794 C 166.102 231.469 165.58 229.931 167.6 226.938 C 168.26 225.96 168.8 224.97 168.8 224.738 C 168.8 224.506 169.301 223.57 169.914 222.658 C 171.232 220.696 172.138 218.613 171.936 218.007 C 171.856 217.769 171.073 218.974 170.196 220.687 C 169.318 222.399 168.465 223.86 168.3 223.933 C 168.135 224.007 168 224.399 168 224.805 C 168 225.211 167.765 225.781 167.478 226.071 C 167.018 226.536 166.081 228.153 165.2 230 C 164.547 231.371 160.896 231.392 159.703 230.032 C 159.108 229.354 158.463 228.8 158.268 228.8 C 158.074 228.8 157.169 228.217 156.258 227.504 C 155.346 226.79 154.366 226.025 154.081 225.804 C 153.795 225.582 153.255 225.118 152.881 224.772 C 152.506 224.427 150.895 223.187 149.3 222.017 C 143.959 218.099 145.16 217.998 153.877 221.633 C 156.999 222.935 159.716 224 159.915 224 C 160.688 224 161.542 225.486 161.81 227.3 C 161.964 228.345 162.265 229.2 162.477 229.2 C 162.89 229.2 162.63 227.459 161.899 225.334 C 161.288 223.555 161.821 222.884 167.837 217.855 C 173.197 213.375 173.6 213.132 173.6 214.376 M 146.62 220.956 C 147.071 221.42 150.355 223.96 153.918 226.6 C 161.678 232.35 161.754 232.556 156.173 232.713 L 152.155 232.826 L 150.945 231.313 C 149.226 229.165 144 220.708 144 220.075 C 144 219.345 145.567 219.871 146.62 220.956 M 176.4 231.559 C 178.93 232.636 181.33 233.626 181.733 233.759 C 183.661 234.394 182.019 234.998 178.593 234.914 C 176.23 234.856 175.201 234.961 175.47 235.23 C 175.691 235.451 177.418 235.697 179.308 235.776 C 185.023 236.015 187.927 237.627 183.7 238.215 C 182.655 238.36 179.582 238.911 176.872 239.439 C 171.253 240.533 171.394 240.564 168.415 237.539 C 165.721 234.801 166.103 234.19 170.291 234.544 C 171.891 234.679 173.2 234.635 173.2 234.445 C 173.2 233.974 171.142 233.6 168.55 233.6 C 165.767 233.6 165.604 232.611 168.1 230.861 C 170.409 229.242 171.097 229.3 176.4 231.559 M 160.253 233.719 C 160.648 234.115 159.574 236 158.952 236 C 158.671 236 157.64 236.54 156.662 237.2 C 155.684 237.86 154.784 238.4 154.662 238.4 C 154.54 238.4 153.64 238.94 152.662 239.6 C 151.684 240.26 150.784 240.8 150.662 240.8 C 150.54 240.8 149.64 241.34 148.662 242 C 147.684 242.66 146.784 243.2 146.662 243.2 C 146.54 243.2 145.666 243.695 144.72 244.3 C 143.774 244.905 142.64 245.626 142.2 245.902 C 137.188 249.05 137.257 247.922 142.428 242.2 C 147.938 236.102 150.152 233.799 150.775 233.518 C 151.563 233.163 159.872 233.339 160.253 233.719 M 167.35 237.512 C 168.037 238.297 168.844 239.184 169.143 239.484 C 169.878 240.221 169.838 240.867 168.633 247.8 C 168.059 251.1 167.494 254.385 167.377 255.1 C 167.044 257.132 166.536 256.634 166.153 253.9 L 165.803 251.4 L 165.686 254.9 C 165.518 259.904 165.023 259.58 161.216 251.983 C 157.997 245.56 157.477 243.732 158.6 242.8 C 158.93 242.526 159.2 242.125 159.2 241.909 C 159.2 241.693 159.74 240.716 160.4 239.738 C 161.06 238.76 161.6 237.678 161.6 237.333 C 161.6 236.878 161.878 236.76 162.614 236.901 C 163.336 237.039 163.747 236.874 164.039 236.328 C 164.596 235.286 165.766 235.705 167.35 237.512 M 160.876 237.015 C 160.808 237.447 160.403 238.288 159.976 238.884 C 159.549 239.48 159.2 240.155 159.2 240.384 C 159.2 240.613 159.04 240.8 158.843 240.8 C 158.647 240.8 158.38 241.227 158.249 241.748 C 157.991 242.775 156.117 243.716 151.8 244.986 C 150.48 245.375 148.055 246.122 146.411 246.646 C 141.328 248.268 141.001 247.061 145.853 244.588 C 146.704 244.155 147.49 243.71 147.6 243.6 C 147.922 243.278 149.319 242.433 150.4 241.907 C 150.95 241.64 152.412 240.741 153.649 239.91 C 154.885 239.08 156.004 238.4 156.134 238.4 C 156.265 238.4 157.143 237.863 158.086 237.207 C 159.99 235.882 161.066 235.807 160.876 237.015 M 164.239 243.2 C 164.372 245.73 164.615 247.944 164.78 248.12 C 165.188 248.555 164.78 240.405 164.344 239.4 C 164.139 238.927 164.096 240.482 164.239 243.2" stroke="none" fill="#f7bd69" fill-rule="evenodd"/><path id="path4" d="M179.114 148.300 C 178.544 148.905,177.041 150.930,175.775 152.800 C 172.961 156.956,172.281 157.797,168.658 161.603 C 164.722 165.738,156.800 176.271,156.800 177.370 C 156.800 177.674,147.123 192.114,145.827 193.744 C 139.060 202.257,134.899 204.465,130.771 201.733 C 129.406 200.830,128.938 200.730,127.103 200.951 C 119.428 201.877,118.428 201.613,115.951 198.000 C 115.122 196.790,113.648 195.170,112.676 194.401 C 111.005 193.077,108.879 190.327,107.659 187.909 C 104.296 181.244,99.324 182.715,94.734 191.733 C 90.121 200.796,78.613 213.271,75.469 212.618 C 70.891 211.668,69.510 212.120,66.178 215.659 C 62.788 219.259,61.146 221.912,57.178 230.200 C 55.522 233.660,53.216 236.771,48.987 241.253 C 38.485 252.382,37.509 257.719,47.479 249.501 C 49.062 248.195,50.412 246.974,50.479 246.787 C 50.545 246.600,51.680 245.303,53.000 243.905 C 55.595 241.157,58.909 237.511,60.216 235.965 C 60.665 235.434,63.078 232.660,65.578 229.800 C 68.079 226.940,70.609 224.040,71.201 223.357 C 72.191 222.212,72.521 222.097,75.355 221.916 C 78.510 221.713,80.800 220.448,80.800 218.907 C 80.800 218.608,82.390 216.707,84.333 214.682 C 86.277 212.657,88.498 210.010,89.269 208.800 C 98.280 194.656,99.760 193.888,105.990 200.118 C 111.642 205.770,112.131 207.888,109.163 213.875 C 106.721 218.801,106.282 220.962,107.544 221.846 C 109.832 223.449,107.753 226.773,102.079 230.582 C 98.565 232.941,96.805 236.192,96.791 240.349 C 96.775 245.033,91.467 251.343,83.389 256.282 C 73.487 262.335,71.976 263.717,74.046 264.824 C 76.628 266.206,83.415 262.740,97.200 253.000 C 98.410 252.145,100.210 250.903,101.200 250.239 C 104.121 248.282,109.444 242.234,113.030 236.800 C 115.395 233.215,123.990 221.545,127.400 217.289 C 130.503 213.416,131.065 213.037,132.556 213.811 C 134.328 214.730,138.362 214.215,140.197 212.834 C 140.419 212.667,141.739 212.114,143.131 211.605 C 145.099 210.885,146.366 210.017,148.828 207.701 C 151.725 204.976,153.206 203.012,157.200 196.601 C 158.724 194.154,162.579 190.286,167.035 186.731 C 170.553 183.925,171.621 182.667,173.183 179.496 C 177.886 169.942,182.105 168.941,188.250 175.921 C 189.741 177.614,192.257 180.261,193.841 181.802 C 195.781 183.689,197.061 185.347,197.762 186.879 C 198.334 188.131,198.994 189.273,199.228 189.417 C 202.393 191.374,202.574 194.426,199.900 200.796 L 197.800 205.800 193.350 210.290 C 184.619 219.101,185.189 220.143,199.100 220.812 C 212.298 221.448,212.049 221.374,210.953 224.309 C 208.587 230.648,203.592 237.211,196.685 243.054 C 193.804 245.491,191.470 247.779,191.341 248.291 C 190.753 250.636,192.500 252.271,194.531 251.276 C 198.643 249.262,201.551 248.192,204.732 247.523 C 209.341 246.553,212.833 245.008,215.236 242.875 C 216.246 241.978,217.866 240.939,218.836 240.564 C 219.806 240.190,221.373 239.145,222.317 238.242 C 223.942 236.689,224.153 236.605,226.219 236.695 C 231.890 236.942,232.794 238.983,229.618 244.370 C 224.519 253.017,224.730 254.129,230.915 251.218 C 232.805 250.328,234.857 249.598,235.476 249.596 C 237.131 249.590,240.249 247.902,243.200 245.413 C 249.391 240.191,259.892 239.464,266.627 243.791 C 267.082 244.084,268.612 244.686,270.027 245.130 C 274.831 246.636,283.997 251.899,296.893 260.555 C 305.993 266.663,306.800 267.112,306.800 266.071 C 306.800 265.332,304.784 263.298,299.393 258.600 C 297.878 257.280,296.357 255.930,296.012 255.600 C 295.667 255.270,293.678 253.489,291.592 251.643 C 289.507 249.796,286.810 247.362,285.600 246.233 C 284.390 245.104,281.960 242.925,280.200 241.390 C 278.440 239.856,276.910 238.505,276.800 238.388 C 276.690 238.272,273.720 235.584,270.200 232.415 C 266.680 229.246,262.305 225.301,260.477 223.649 C 258.650 221.996,256.670 220.349,256.077 219.988 C 254.692 219.145,250.796 215.172,250.814 214.621 C 250.822 214.389,251.742 213.210,252.859 212.000 C 256.945 207.572,260.619 202.757,261.775 200.314 C 262.794 198.161,270.285 190.800,271.457 190.800 C 272.124 190.800,272.960 191.530,274.417 193.384 C 275.534 194.805,277.848 197.126,279.561 198.543 C 284.853 202.922,285.331 205.008,282.145 209.841 C 281.405 210.964,280.800 212.016,280.800 212.178 C 280.800 212.974,277.386 217.187,275.596 218.600 C 273.501 220.254,272.750 221.711,273.571 222.529 C 274.126 223.082,280.795 222.975,282.869 222.380 C 285.201 221.712,294.240 221.897,294.971 222.629 C 296.576 224.233,293.562 230.977,290.505 232.623 C 287.386 234.303,285.946 238.070,288.205 238.637 C 290.517 239.217,301.770 236.263,304.188 234.441 C 304.415 234.271,305.821 233.622,307.314 233.000 C 310.679 231.597,311.178 231.863,310.492 234.697 C 309.176 240.132,309.604 242.833,311.678 242.175 C 314.206 241.373,316.406 240.041,318.648 237.956 C 321.787 235.035,322.941 234.857,326.800 236.696 C 328.690 237.597,332.834 239.936,334.800 241.212 C 335.130 241.426,336.480 242.121,337.800 242.757 C 340.692 244.148,345.910 247.636,351.600 251.981 C 368.275 264.715,346.157 236.408,326.687 220.098 C 316.257 211.361,313.199 209.846,309.208 211.443 C 308.244 211.829,307.177 211.981,306.545 211.822 C 304.548 211.321,294.705 200.738,290.712 194.800 C 290.342 194.250,288.636 191.955,286.920 189.700 C 283.289 184.928,282.390 183.617,281.162 181.303 C 280.030 179.170,273.961 173.200,272.924 173.200 C 272.499 173.200,271.723 173.785,271.200 174.500 C 270.677 175.215,269.879 176.059,269.425 176.375 C 266.752 178.240,263.845 181.970,261.633 186.378 C 260.356 188.920,259.053 191.475,258.736 192.055 C 257.803 193.768,255.821 195.839,253.224 197.814 C 251.011 199.497,249.867 200.756,248.516 203.000 C 248.251 203.440,247.553 204.610,246.964 205.600 C 244.402 209.909,243.262 210.339,239.662 208.351 C 237.910 207.384,236.679 207.038,234.200 206.814 C 229.627 206.400,225.600 204.006,225.600 201.701 C 225.600 200.816,223.463 197.145,220.883 193.600 C 219.522 191.730,217.826 189.390,217.114 188.400 C 215.041 185.518,211.262 180.868,208.010 177.200 C 202.027 170.452,200.421 168.472,194.378 160.400 C 184.462 147.153,182.018 145.216,179.114 148.300 M185.387 150.500 C 186.718 151.875,188.809 154.350,190.033 156.000 C 197.713 166.355,199.640 168.818,204.428 174.400 C 207.354 177.810,209.859 180.690,209.996 180.800 C 210.549 181.244,215.547 187.580,216.800 189.425 C 217.538 190.511,219.122 192.713,220.320 194.318 C 221.517 195.922,223.277 198.827,224.229 200.772 C 226.799 206.021,228.600 207.276,234.400 207.854 C 236.157 208.029,237.872 208.548,239.690 209.456 C 243.918 211.568,244.763 211.103,248.630 204.532 C 250.452 201.437,251.343 200.384,253.730 198.509 C 257.688 195.402,259.005 193.665,262.133 187.430 C 264.795 182.126,266.359 180.054,270.061 176.927 C 270.865 176.248,271.726 175.312,271.975 174.846 C 272.224 174.381,272.667 174.000,272.959 174.000 C 273.538 174.000,279.050 179.419,279.716 180.643 C 282.556 185.861,294.870 202.084,299.980 207.339 C 304.790 212.285,305.862 212.993,307.953 212.610 C 313.190 211.649,313.921 211.776,317.800 214.323 C 327.377 220.613,346.494 239.450,354.150 250.142 C 357.806 255.247,357.281 255.269,350.702 250.287 C 344.301 245.438,342.871 244.480,338.785 242.301 C 336.907 241.299,334.387 239.899,333.185 239.189 C 323.561 233.503,322.329 233.336,318.277 237.157 C 316.007 239.298,313.732 240.634,311.644 241.051 C 310.111 241.358,310.149 241.846,311.212 235.554 C 311.951 231.178,311.026 230.164,307.761 231.772 C 298.853 236.158,288.898 239.075,288.286 237.479 C 287.908 236.495,289.143 234.446,290.712 233.456 C 294.518 231.053,297.650 223.891,295.732 221.973 C 294.963 221.203,288.174 220.689,284.972 221.159 C 274.589 222.682,272.809 222.219,276.566 218.976 C 278.745 217.095,281.600 213.382,281.600 212.428 C 281.600 212.146,282.107 211.259,282.727 210.458 C 286.406 205.702,285.730 202.316,280.242 198.003 C 278.837 196.899,276.663 194.744,275.412 193.215 C 271.915 188.940,271.382 188.922,267.254 192.936 C 262.895 197.174,262.368 197.796,260.400 201.030 C 258.618 203.959,255.005 208.521,251.713 212.000 C 249.139 214.720,249.721 216.249,254.788 220.082 C 256.225 221.168,263.906 227.903,271.859 235.047 C 279.811 242.191,286.767 248.433,287.317 248.918 C 288.565 250.019,297.992 258.488,300.176 260.469 C 303.198 263.211,301.329 262.437,295.555 258.555 C 286.668 252.582,272.367 244.400,270.813 244.400 C 270.572 244.400,269.256 243.923,267.888 243.341 C 256.337 238.422,249.393 238.946,241.800 245.309 C 239.107 247.566,236.758 248.778,235.054 248.791 C 234.423 248.796,232.562 249.430,230.918 250.200 C 226.430 252.302,226.216 251.814,229.343 246.600 C 234.041 238.768,233.278 236.000,226.422 236.000 C 223.398 236.000,223.345 236.018,221.854 237.545 C 221.024 238.395,219.677 239.290,218.861 239.534 C 218.044 239.779,216.411 240.803,215.231 241.811 C 212.053 244.523,208.650 246.013,204.200 246.639 C 202.344 246.900,198.640 248.280,195.800 249.767 C 190.921 252.321,190.875 248.849,195.737 245.002 C 202.971 239.278,207.134 234.225,210.897 226.600 C 213.595 221.133,213.039 220.593,204.354 220.243 C 195.571 219.888,189.295 219.196,188.733 218.520 C 187.966 217.595,189.496 215.394,194.209 210.644 C 197.245 207.583,198.844 205.640,199.345 204.400 C 199.745 203.410,200.593 201.476,201.231 200.103 C 203.385 195.460,203.286 192.730,200.860 189.945 C 200.024 188.985,198.813 187.140,198.170 185.845 C 197.439 184.375,196.207 182.797,194.889 181.645 C 193.727 180.630,191.456 178.258,189.841 176.372 C 182.166 167.413,177.517 168.446,171.715 180.400 C 170.759 182.371,169.460 183.697,164.536 187.734 C 160.757 190.831,157.752 194.010,156.136 196.621 C 150.771 205.287,146.938 209.422,143.172 210.606 C 142.638 210.774,141.300 211.326,140.200 211.833 C 136.771 213.413,135.040 213.711,133.366 213.011 C 131.100 212.065,130.620 212.231,128.334 214.759 C 126.329 216.974,124.212 219.807,115.448 232.000 C 105.910 245.271,104.117 247.317,99.072 250.684 C 96.834 252.178,94.269 253.959,93.373 254.643 C 92.476 255.326,91.576 255.957,91.371 256.043 C 91.167 256.130,89.470 257.215,87.600 258.456 C 82.422 261.889,77.248 264.400,75.351 264.400 C 73.766 264.400,74.246 263.115,76.315 261.820 C 92.848 251.476,96.895 247.433,97.605 240.555 C 98.170 235.071,98.848 234.045,104.800 229.653 C 108.792 226.707,110.327 223.144,108.368 221.371 C 107.269 220.377,107.477 219.464,110.022 214.104 C 112.942 207.953,112.353 205.174,106.989 199.811 C 100.105 192.926,97.387 193.967,89.775 206.400 C 88.371 208.692,86.053 211.651,83.930 213.857 C 81.996 215.869,80.238 217.975,80.024 218.536 C 79.425 220.113,77.867 220.888,74.866 221.102 C 71.559 221.339,72.099 220.916,65.816 228.200 C 62.970 231.500,59.012 236.006,57.021 238.212 C 55.029 240.419,52.320 243.458,51.000 244.964 C 47.518 248.938,42.000 252.988,42.000 251.570 C 42.000 250.900,46.057 245.714,49.176 242.400 C 54.224 237.034,57.225 232.725,59.255 227.925 C 63.060 218.930,69.773 212.006,73.582 213.147 C 75.881 213.836,76.881 213.704,78.822 212.457 C 82.531 210.071,89.626 201.632,94.205 194.159 C 100.266 184.267,101.607 183.111,104.348 185.418 C 105.455 186.349,108.798 190.948,108.802 191.546 C 108.805 191.944,111.065 194.256,112.582 195.414 C 113.338 195.990,114.535 197.364,115.243 198.467 C 117.684 202.271,120.937 203.150,127.510 201.779 C 128.552 201.562,129.152 201.727,130.449 202.585 C 136.042 206.286,142.019 201.652,152.614 185.400 C 164.822 166.673,164.274 167.429,170.186 161.180 C 172.174 159.079,174.863 155.749,176.162 153.780 C 180.742 146.837,181.558 146.547,185.387 150.500 M77.917 280.715 C 76.882 281.092,75.811 281.625,75.537 281.900 C 75.264 282.175,74.884 282.400,74.693 282.400 C 73.256 282.400,68.672 288.005,68.151 290.400 C 68.031 290.950,67.678 292.197,67.367 293.171 C 66.600 295.567,66.600 304.433,67.367 306.829 C 67.678 307.803,68.032 309.050,68.153 309.600 C 68.665 311.932,73.248 317.568,74.651 317.592 C 74.899 317.597,75.302 317.841,75.546 318.135 C 77.388 320.355,87.625 320.671,91.769 318.637 C 99.565 314.809,104.358 304.017,98.271 303.994 C 97.352 303.990,95.520 303.727,94.200 303.408 C 89.861 302.360,88.914 302.528,88.339 304.446 C 86.744 309.771,81.611 309.470,80.434 303.983 C 78.323 294.139,84.624 286.683,88.009 295.021 C 89.027 297.530,89.655 297.689,94.200 296.592 C 95.520 296.273,97.352 296.010,98.271 296.006 C 104.358 295.983,99.565 285.191,91.769 281.363 C 88.747 279.880,81.186 279.526,77.917 280.715 M231.577 280.731 C 215.520 286.623,215.658 313.919,231.771 319.337 C 236.308 320.863,243.952 320.112,248.231 317.721 C 259.552 311.393,259.552 288.607,248.231 282.279 C 243.947 279.885,235.916 279.139,231.577 280.731 M306.989 280.753 C 296.533 284.520,292.233 298.808,297.848 311.126 C 301.638 319.442,313.326 322.830,320.821 317.786 C 322.890 316.394,324.000 316.394,324.000 317.787 C 324.000 319.785,329.872 320.478,330.736 318.581 C 331.542 316.812,331.369 299.438,330.538 298.749 C 329.715 298.066,315.188 297.840,313.766 298.488 C 311.290 299.617,312.023 306.000,314.629 306.000 C 315.845 306.000,315.858 306.419,314.674 307.530 C 311.073 310.913,307.667 303.277,309.315 295.516 C 310.356 290.616,315.200 290.335,317.224 295.056 C 318.190 297.310,318.633 297.449,322.337 296.667 C 324.022 296.311,326.247 295.915,327.283 295.788 C 328.318 295.660,329.570 295.228,330.065 294.828 L 330.964 294.100 330.191 291.750 C 327.078 282.283,316.570 277.302,306.989 280.753 M112.880 280.880 C 112.189 281.571,112.189 318.429,112.880 319.120 C 113.790 320.030,125.082 319.769,125.586 318.826 C 125.854 318.326,126.000 311.679,126.000 300.000 C 126.000 288.321,125.854 281.674,125.586 281.174 C 125.082 280.231,113.790 279.970,112.880 280.880 M137.611 281.372 C 137.116 282.672,137.106 317.300,137.599 318.599 L 137.980 319.600 152.310 319.600 C 169.096 319.600,167.600 320.111,167.600 314.382 C 167.600 308.549,168.072 308.846,158.579 308.709 L 151.000 308.600 151.000 307.000 L 151.000 305.400 158.915 305.200 C 168.202 304.965,167.588 305.334,167.588 300.000 C 167.588 294.666,168.202 295.035,158.915 294.800 L 151.000 294.600 151.000 293.000 L 151.000 291.400 158.915 291.200 C 168.250 290.964,167.585 291.394,167.594 285.580 C 167.602 279.896,169.090 280.400,152.310 280.400 L 137.980 280.400 137.611 281.372 M179.423 281.289 C 178.882 282.061,178.800 284.517,178.800 300.000 C 178.800 315.483,178.882 317.939,179.423 318.711 L 180.045 319.600 194.209 319.600 C 210.845 319.600,209.200 320.271,209.200 313.488 C 209.200 307.257,209.733 307.600,200.069 307.600 L 192.400 307.600 192.400 294.774 C 192.400 286.697,192.247 281.661,191.986 281.174 C 191.304 279.900,180.325 280.001,179.423 281.289 M88.489 281.363 C 93.584 282.428,97.884 286.461,99.773 291.942 C 100.661 294.521,100.605 294.579,96.610 295.184 C 95.065 295.418,93.003 295.770,92.030 295.965 C 89.717 296.430,89.291 296.222,88.797 294.388 C 86.773 286.871,78.800 291.308,78.800 299.953 C 78.800 308.563,86.421 313.010,88.803 305.790 C 89.379 304.044,90.124 303.628,91.951 304.029 C 92.748 304.205,94.775 304.562,96.456 304.823 C 100.655 305.476,100.660 305.481,99.773 308.058 C 94.800 322.493,73.781 323.139,69.113 309.000 C 63.450 291.846,73.062 278.135,88.489 281.363 M242.600 281.338 C 251.131 282.974,255.600 289.389,255.600 300.000 C 255.600 313.934,247.079 321.227,233.800 318.657 C 225.532 317.058,220.800 310.266,220.800 300.000 C 220.800 286.301,229.526 278.831,242.600 281.338 M317.827 281.349 C 322.742 282.405,326.299 285.210,328.246 289.567 C 330.303 294.167,329.682 294.698,320.978 295.785 L 318.782 296.060 317.982 294.252 C 315.629 288.932,310.214 289.622,308.407 295.472 C 306.348 302.138,308.866 309.200,313.302 309.200 C 315.847 309.200,317.915 305.882,315.700 305.352 C 313.956 304.936,313.600 304.432,313.600 302.380 C 313.600 299.343,313.633 299.332,322.166 299.457 C 326.266 299.517,329.814 299.685,330.050 299.831 C 330.342 300.011,330.435 302.994,330.340 309.148 L 330.200 318.200 327.600 318.200 C 325.130 318.200,324.993 318.150,324.862 317.200 C 324.534 314.830,323.524 314.681,320.845 316.606 C 312.913 322.305,300.903 318.262,297.897 308.881 C 292.356 291.595,302.201 277.994,317.827 281.349 M124.704 300.100 L 124.808 318.400 119.204 318.400 L 113.600 318.400 113.600 299.989 L 113.600 281.577 119.100 281.689 L 124.600 281.800 124.704 300.100 M166.314 285.700 L 166.200 289.800 158.430 289.909 C 149.653 290.032,149.600 290.049,149.600 292.820 C 149.600 295.974,149.673 296.000,158.629 296.000 L 166.400 296.000 166.400 300.000 L 166.400 304.000 158.629 304.000 C 149.673 304.000,149.600 304.026,149.600 307.180 C 149.600 309.951,149.653 309.968,158.430 310.091 L 166.200 310.200 166.314 314.300 L 166.428 318.400 152.414 318.400 L 138.400 318.400 138.400 300.000 L 138.400 281.600 152.414 281.600 L 166.428 281.600 166.314 285.700 M191.200 294.524 C 191.200 304.237,191.324 307.614,191.700 308.119 C 192.133 308.701,193.240 308.804,200.000 308.895 L 207.800 309.000 207.913 313.700 L 208.025 318.400 194.013 318.400 L 180.000 318.400 180.000 300.000 L 180.000 281.600 185.600 281.600 L 191.200 281.600 191.200 294.524 M234.672 292.106 C 231.095 295.479,231.134 304.355,234.741 307.858 C 240.310 313.267,246.844 303.762,243.570 295.013 C 241.959 290.705,237.650 289.298,234.672 292.106 M240.384 292.254 C 242.675 293.608,243.680 297.694,243.020 302.976 C 242.211 309.454,234.973 310.227,233.633 303.978 C 231.881 295.808,235.566 289.408,240.384 292.254 M267.043 295.033 C 266.579 296.242,266.776 304.616,267.280 305.120 C 267.622 305.462,270.124 305.600,276.000 305.600 C 285.914 305.600,285.200 306.035,285.200 300.000 C 285.200 296.924,285.038 295.198,284.720 294.880 C 283.908 294.068,267.358 294.211,267.043 295.033 M283.800 300.000 L 283.800 304.600 276.000 304.600 L 268.200 304.600 268.085 300.427 C 267.926 294.652,267.126 295.165,276.091 295.291 L 283.800 295.400 283.800 300.000 " stroke="none" fill="#a0afc1" fill-rule="evenodd"/></g></g></svg>