<svg xmlns="http://www.w3.org/2000/svg" xmlns:xlink="http://www.w3.org/1999/xlink" width="1080" zoomAndPan="magnify" viewBox="0 0 810 809.999993" height="1080" preserveAspectRatio="xMidYMid meet" version="1.0"><rect x="-81" width="972" fill="#ffffff" y="-80.999999" height="971.999992" fill-opacity="1"/><rect x="-81" width="972" fill="#ffffff" y="-80.999999" height="971.999992" fill-opacity="1"/><path fill="#294466" d="M 384.804688 380.699219 C 384.148438 381.410156 382.363281 383.886719 380.835938 386.203125 C 379.308594 388.519531 376.144531 392.433594 373.808594 394.90625 C 366.855469 402.253906 367.5 401.363281 353.144531 423.386719 C 340.683594 442.5 333.652344 447.949219 327.078125 443.597656 C 325.550781 442.589844 324.847656 442.394531 323.621094 442.648438 C 315.890625 444.261719 312.066406 443.226562 309.195312 438.753906 C 308.363281 437.457031 306.953125 435.839844 306.066406 435.164062 C 304.28125 433.800781 301.625 431.082031 301.621094 430.613281 C 301.613281 429.910156 297.683594 424.503906 296.382812 423.410156 C 293.160156 420.695312 291.582031 422.054688 284.453125 433.6875 C 279.070312 442.476562 270.726562 452.402344 266.363281 455.207031 C 264.082031 456.671875 262.90625 456.828125 260.199219 456.019531 C 255.722656 454.675781 247.828125 462.820312 243.351562 473.398438 C 240.964844 479.042969 237.4375 484.109375 231.5 490.417969 C 227.832031 494.316406 223.0625 500.414062 223.0625 501.203125 C 223.0625 502.871094 229.550781 498.109375 233.644531 493.433594 C 235.195312 491.664062 238.382812 488.089844 240.726562 485.496094 C 243.066406 482.898438 247.722656 477.601562 251.066406 473.71875 C 258.457031 465.152344 257.820312 465.652344 261.710938 465.371094 C 265.238281 465.121094 267.074219 464.210938 267.777344 462.355469 C 268.027344 461.695312 270.097656 459.21875 272.371094 456.851562 C 274.867188 454.257812 277.59375 450.777344 279.242188 448.082031 C 288.195312 433.460938 291.390625 432.238281 299.488281 440.335938 C 305.796875 446.640625 306.488281 449.910156 303.054688 457.144531 C 300.0625 463.445312 299.816406 464.519531 301.109375 465.6875 C 303.414062 467.773438 301.609375 471.964844 296.914062 475.429688 C 289.914062 480.59375 289.117188 481.800781 288.453125 488.25 C 287.617188 496.339844 282.859375 501.09375 263.414062 513.257812 C 260.980469 514.78125 260.417969 516.292969 262.28125 516.292969 C 264.511719 516.292969 270.597656 513.339844 276.6875 509.300781 C 278.886719 507.839844 280.882812 506.566406 281.121094 506.464844 C 281.363281 506.363281 282.421875 505.621094 283.476562 504.816406 C 284.527344 504.011719 287.546875 501.917969 290.175781 500.160156 C 296.109375 496.203125 298.21875 493.796875 309.433594 478.1875 C 326.585938 454.324219 326.660156 454.25 330.507812 455.859375 C 332.476562 456.679688 334.511719 456.332031 338.542969 454.472656 C 339.835938 453.875 341.410156 453.226562 342.039062 453.03125 C 346.46875 451.636719 350.976562 446.773438 357.285156 436.582031 C 359.183594 433.511719 362.71875 429.773438 367.164062 426.132812 C 372.953125 421.382812 374.480469 419.824219 375.605469 417.507812 C 382.429688 403.449219 387.894531 402.234375 396.921875 412.769531 C 398.820312 414.988281 401.492188 417.777344 402.859375 418.972656 C 404.40625 420.328125 405.855469 422.183594 406.714844 423.910156 C 407.472656 425.433594 408.898438 427.601562 409.878906 428.730469 C 412.734375 432.007812 412.847656 435.21875 410.316406 440.679688 C 409.566406 442.292969 408.570312 444.566406 408.097656 445.730469 C 407.507812 447.191406 405.628906 449.472656 402.058594 453.074219 C 396.515625 458.660156 394.714844 461.25 395.617188 462.335938 C 396.28125 463.132812 403.660156 463.945312 413.988281 464.363281 C 424.203125 464.773438 424.855469 465.410156 421.683594 471.839844 C 417.257812 480.804688 412.363281 486.746094 403.855469 493.480469 C 398.136719 498.003906 398.191406 502.085938 403.929688 499.082031 C 407.269531 497.335938 411.625 495.710938 413.808594 495.40625 C 419.039062 494.667969 423.042969 492.914062 426.78125 489.726562 C 428.167969 488.542969 430.089844 487.335938 431.050781 487.050781 C 432.007812 486.761719 433.59375 485.710938 434.570312 484.710938 C 436.324219 482.914062 436.382812 482.894531 439.941406 482.894531 C 448.003906 482.894531 448.902344 486.148438 443.375 495.359375 C 439.699219 501.488281 439.949219 502.0625 445.226562 499.59375 C 447.160156 498.6875 449.351562 497.941406 450.09375 497.933594 C 452.097656 497.917969 454.859375 496.496094 458.023438 493.839844 C 466.953125 486.359375 475.121094 485.742188 488.703125 491.527344 C 490.3125 492.210938 491.859375 492.769531 492.144531 492.769531 C 493.972656 492.769531 510.789062 502.394531 521.242188 509.417969 C 528.03125 513.984375 530.230469 514.894531 526.675781 511.667969 C 524.105469 509.339844 513.019531 499.378906 511.554688 498.085938 C 510.90625 497.515625 502.726562 490.171875 493.375 481.773438 C 484.023438 473.371094 474.988281 465.449219 473.300781 464.171875 C 467.339844 459.664062 466.65625 457.867188 469.683594 454.667969 C 473.554688 450.578125 477.804688 445.210938 479.898438 441.769531 C 482.214844 437.964844 482.832031 437.234375 487.960938 432.25 C 492.8125 427.527344 493.441406 427.550781 497.554688 432.578125 C 499.023438 434.375 501.582031 436.910156 503.234375 438.207031 C 509.6875 443.28125 510.480469 447.261719 506.15625 452.855469 C 505.425781 453.796875 504.832031 454.839844 504.832031 455.171875 C 504.832031 456.292969 501.472656 460.660156 498.910156 462.871094 C 494.492188 466.6875 496.585938 467.230469 508.796875 465.441406 C 512.5625 464.886719 520.546875 465.492188 521.449219 466.398438 C 523.703125 468.652344 520.023438 477.074219 515.546875 479.902344 C 513.699219 481.066406 512.25 483.476562 512.691406 484.632812 C 513.414062 486.507812 525.121094 483.078125 535.59375 477.921875 C 539.433594 476.03125 540.523438 477.222656 539.652344 482.367188 C 538.402344 489.769531 538.359375 489.195312 540.160156 488.832031 C 542.617188 488.34375 545.292969 486.769531 547.960938 484.253906 C 552.726562 479.761719 554.175781 479.957031 565.492188 486.644531 C 566.90625 487.476562 569.871094 489.125 572.078125 490.304688 C 576.886719 492.867188 578.566406 493.992188 586.09375 499.695312 C 593.832031 505.554688 594.449219 505.527344 590.148438 499.523438 C 581.144531 486.949219 558.664062 464.796875 547.402344 457.402344 C 542.839844 454.40625 541.980469 454.257812 535.820312 455.386719 C 533.363281 455.835938 532.101562 455.003906 526.445312 449.1875 C 520.4375 443.007812 505.953125 423.929688 502.613281 417.792969 C 501.832031 416.355469 495.347656 409.980469 494.667969 409.980469 C 494.324219 409.980469 493.804688 410.429688 493.511719 410.976562 C 493.21875 411.523438 492.207031 412.625 491.261719 413.421875 C 486.90625 417.101562 485.066406 419.539062 481.9375 425.773438 C 478.257812 433.105469 476.710938 435.148438 472.054688 438.804688 C 469.246094 441.007812 468.199219 442.246094 466.058594 445.886719 C 461.511719 453.613281 460.515625 454.160156 455.542969 451.675781 C 453.40625 450.609375 451.390625 450 449.324219 449.792969 C 442.503906 449.113281 440.382812 447.636719 437.363281 441.464844 C 436.242188 439.175781 434.171875 435.761719 432.765625 433.875 C 431.355469 431.988281 429.492188 429.398438 428.625 428.121094 C 427.152344 425.949219 421.273438 418.5 420.625 417.976562 C 420.460938 417.847656 417.515625 414.460938 414.074219 410.453125 C 408.445312 403.886719 406.179688 400.992188 397.148438 388.8125 C 390.621094 380.015625 387.390625 377.890625 384.804688 380.699219 " fill-opacity="1" fill-rule="evenodd"/><path fill="#f38434" d="M 390.289062 276.226562 C 389.253906 276.308594 387.347656 276.59375 386.054688 276.855469 C 384.761719 277.117188 382.21875 277.53125 380.410156 277.773438 C 375.050781 278.496094 371.152344 279.222656 368.648438 279.972656 C 367.355469 280.359375 365.449219 280.90625 364.414062 281.1875 C 361.230469 282.054688 352.734375 284.859375 351.246094 285.539062 C 350.46875 285.890625 348.402344 286.753906 346.652344 287.453125 C 343.160156 288.851562 328.824219 296.007812 328.4375 296.546875 C 328.304688 296.730469 326.5 297.925781 324.433594 299.203125 C 322.363281 300.476562 319.714844 302.210938 318.550781 303.058594 C 313.6875 306.585938 312.828125 307.234375 312.0625 307.929688 C 311.621094 308.332031 309.039062 310.585938 306.320312 312.933594 C 298.1875 319.96875 288.152344 331.082031 283.273438 338.472656 C 282.625 339.449219 281.257812 341.492188 280.234375 343.011719 C 279.210938 344.53125 277.980469 346.480469 277.503906 347.347656 C 277.023438 348.214844 276.417969 349.167969 276.15625 349.464844 C 275.507812 350.207031 271.113281 358.792969 268.300781 364.824219 C 266.277344 369.152344 261.664062 382.5625 260.691406 386.929688 C 260.375 388.355469 259.824219 390.503906 259.46875 391.710938 C 255.019531 406.746094 254.550781 447.140625 258.824219 447.140625 C 259.527344 447.140625 260.761719 447.273438 261.5625 447.433594 C 264.023438 447.925781 275.074219 434.707031 279.507812 425.964844 C 280.09375 424.804688 280.730469 423.75 280.917969 423.621094 C 281.105469 423.492188 281.585938 422.753906 281.988281 421.976562 C 287.804688 410.726562 299.109375 411.464844 307.015625 423.605469 C 308.683594 426.167969 310.679688 428.613281 311.640625 429.269531 C 312.566406 429.90625 313.90625 431.34375 314.617188 432.464844 C 316.25 435.046875 316.980469 435.429688 319.289062 434.894531 C 322.679688 434.105469 327.34375 434.347656 329.445312 435.421875 C 332.371094 436.914062 334.878906 435.382812 338.773438 429.738281 C 339.398438 428.832031 340.050781 427.984375 340.21875 427.855469 C 340.613281 427.554688 347.765625 416.90625 350.484375 412.566406 C 351.621094 410.757812 353.410156 407.898438 354.464844 406.21875 C 355.515625 404.535156 356.8125 402.59375 357.339844 401.902344 C 357.867188 401.210938 358.9375 399.75 359.710938 398.65625 C 360.488281 397.5625 363.417969 394.214844 366.21875 391.210938 C 369.019531 388.210938 372.882812 383.414062 374.804688 380.546875 C 384.683594 365.824219 392.421875 367.570312 406.605469 387.71875 C 411.820312 395.125 416.742188 401.289062 424.628906 410.289062 C 429.648438 416.019531 430.003906 416.457031 433.792969 421.589844 C 443.378906 434.574219 443.925781 435.398438 445.121094 438.597656 C 446.078125 441.160156 446.695312 441.496094 450.421875 441.496094 C 452.90625 441.496094 454.273438 441.746094 455.558594 442.4375 C 458.007812 443.75 457.941406 443.789062 460.300781 439.734375 C 461.464844 437.730469 463.125 435.523438 463.988281 434.832031 C 464.847656 434.144531 466.664062 432.707031 468.023438 431.644531 C 470.9375 429.367188 471.804688 428.070312 475.441406 420.566406 C 477.835938 415.617188 478.65625 414.429688 482.109375 410.90625 C 484.273438 408.699219 486.4375 406.242188 486.917969 405.453125 C 489.789062 400.730469 495.132812 399.957031 499.890625 403.570312 C 502.816406 405.789062 508.953125 412.164062 509.808594 413.863281 C 510.621094 415.480469 513.804688 420.402344 514.292969 420.800781 C 514.453125 420.929688 515.195312 421.902344 515.941406 422.960938 C 517.199219 424.753906 521.714844 430.773438 522.617188 431.867188 C 522.835938 432.132812 523.414062 432.980469 523.898438 433.746094 C 526.5625 437.96875 535.753906 447.308594 536.785156 446.84375 C 539.539062 445.601562 544.078125 446.3125 548.699219 448.710938 C 551.917969 450.375 551.628906 450.5625 552.570312 446.191406 C 554.046875 439.359375 554.417969 408.433594 553.050781 406.226562 C 552.859375 405.910156 552.421875 403.824219 552.085938 401.585938 C 550.800781 393.066406 550.441406 391.066406 550.058594 390.304688 C 549.839844 389.871094 549.292969 387.929688 548.84375 385.992188 C 548.035156 382.519531 545.199219 373.484375 544.339844 371.644531 C 544.097656 371.125 543.492188 369.644531 542.996094 368.351562 C 541.980469 365.699219 536.585938 354.527344 534.59375 350.945312 C 532.570312 347.304688 530.542969 343.914062 530.230469 343.65625 C 530.074219 343.523438 529.308594 342.464844 528.523438 341.300781 C 524.363281 335.117188 522.019531 332.066406 517 326.300781 C 513.175781 321.90625 502.921875 311.878906 500.363281 310.027344 C 499.328125 309.277344 497.84375 308.097656 497.070312 307.402344 C 495.726562 306.203125 493.066406 304.28125 488.367188 301.125 C 487.203125 300.347656 485.96875 299.433594 485.628906 299.101562 C 485.285156 298.769531 484.777344 298.496094 484.496094 298.496094 C 484.214844 298.496094 483.304688 297.976562 482.472656 297.339844 C 480.421875 295.777344 468.429688 289.640625 463.199219 287.480469 C 460.871094 286.515625 458.542969 285.539062 458.023438 285.308594 C 456.566406 284.65625 447.476562 281.746094 444.855469 281.089844 C 443.5625 280.769531 441.125 280.128906 439.445312 279.667969 C 437.761719 279.207031 434.90625 278.601562 433.09375 278.324219 C 431.28125 278.042969 428.425781 277.578125 426.742188 277.28125 C 420.457031 276.183594 416.78125 275.976562 404.636719 276.023438 C 397.777344 276.050781 391.324219 276.144531 390.289062 276.226562 " fill-opacity="1" fill-rule="evenodd"/><path fill="#f7bd69" d="M 388.40625 275.464844 C 372.855469 277.347656 362.722656 279.800781 350.335938 284.671875 C 345.152344 286.710938 330.878906 293.667969 327.960938 295.574219 C 326.796875 296.339844 324.679688 297.710938 323.253906 298.628906 C 294.933594 316.886719 272.351562 346.195312 262.117188 377.992188 C 259.546875 385.96875 259.675781 385.484375 257.703125 395.164062 C 254.421875 411.273438 253.707031 433.257812 256.078125 445.066406 C 256.695312 448.148438 256.925781 448.34375 260.335938 448.726562 C 262.960938 449.023438 263.085938 448.984375 264.960938 447.289062 C 268.789062 443.832031 280.917969 427.539062 280.917969 425.855469 C 280.917969 425.144531 284.539062 420.144531 286.164062 418.605469 C 292.621094 412.511719 299.191406 414.109375 305.398438 423.28125 C 307.085938 425.78125 309.628906 428.945312 311.042969 430.308594 C 312.457031 431.675781 314.222656 433.613281 314.96875 434.613281 C 316.308594 436.410156 316.355469 436.425781 318.734375 436.121094 C 325.859375 435.210938 326.273438 435.226562 328.984375 436.507812 C 332.324219 438.085938 332.300781 438.089844 334.855469 435.734375 C 338.75 432.148438 344.53125 424.144531 352.890625 410.757812 C 357.9375 402.675781 362.234375 396.96875 367.410156 391.46875 C 370.292969 388.40625 374.003906 383.84375 375.65625 381.328125 C 384.722656 367.53125 390.773438 368.523438 403.785156 385.9375 C 406.417969 389.460938 409.75 393.90625 411.1875 395.820312 C 412.628906 397.738281 416.457031 402.394531 419.695312 406.171875 C 429.371094 417.453125 432.109375 420.839844 435.726562 426 C 437.625 428.703125 439.957031 431.914062 440.914062 433.136719 C 441.867188 434.355469 443.027344 436.367188 443.488281 437.605469 C 445.148438 442.046875 446.429688 442.902344 451.457031 442.90625 C 452.894531 442.90625 454.554688 443.28125 455.671875 443.851562 C 458.148438 445.113281 458.917969 444.75 460.472656 441.601562 C 461.8125 438.878906 465.023438 435.332031 469.421875 431.722656 C 471.816406 429.757812 474.0625 426.460938 475.902344 422.210938 C 477.84375 417.722656 480.210938 414.304688 483.980469 410.550781 C 486.132812 408.402344 487.894531 406.351562 487.894531 405.984375 C 487.894531 405.621094 488.636719 404.757812 489.546875 404.066406 C 495.140625 399.796875 502.085938 404.277344 511.109375 417.976562 C 518.644531 429.40625 533.941406 448.144531 535.675781 448.0625 C 535.914062 448.050781 537.0625 447.859375 538.230469 447.628906 C 541.101562 447.070312 544.339844 447.75 548.25 449.738281 C 550.023438 450.640625 551.75 451.375 552.085938 451.375 C 554.75 451.375 556.144531 418.445312 554.03125 405.511719 C 553.652344 403.183594 553.109375 399.902344 552.832031 398.222656 C 550.3125 383.128906 542.566406 361.984375 535.019531 349.605469 C 533.9375 347.832031 533.054688 346.3125 533.054688 346.226562 C 533.054688 345.898438 527.15625 337.160156 525.125 334.480469 C 518.09375 325.199219 508.101562 314.824219 499.667969 308.046875 C 495.171875 304.433594 484.027344 296.613281 483.371094 296.613281 C 483.222656 296.613281 482.539062 296.214844 481.851562 295.730469 C 474.980469 290.851562 455.976562 282.695312 444.972656 279.898438 C 443.484375 279.519531 440.945312 278.875 439.328125 278.464844 C 424.972656 274.828125 403.917969 273.585938 388.40625 275.464844 M 420.394531 276.363281 C 422.203125 276.574219 425.0625 276.988281 426.742188 277.28125 C 428.425781 277.578125 431.28125 278.042969 433.09375 278.324219 C 434.90625 278.601562 437.761719 279.207031 439.445312 279.667969 C 441.125 280.128906 443.5625 280.769531 444.855469 281.089844 C 447.476562 281.746094 456.566406 284.65625 458.023438 285.308594 C 458.542969 285.539062 460.871094 286.515625 463.199219 287.480469 C 468.429688 289.640625 480.421875 295.777344 482.472656 297.339844 C 483.304688 297.976562 484.214844 298.496094 484.496094 298.496094 C 484.777344 298.496094 485.285156 298.769531 485.628906 299.101562 C 485.96875 299.433594 487.203125 300.347656 488.367188 301.125 C 493.066406 304.28125 495.726562 306.203125 497.070312 307.402344 C 497.84375 308.097656 499.328125 309.277344 500.363281 310.027344 C 502.921875 311.878906 513.175781 321.90625 517 326.300781 C 522.019531 332.066406 524.363281 335.117188 528.523438 341.300781 C 529.308594 342.464844 530.074219 343.523438 530.230469 343.65625 C 530.542969 343.914062 532.570312 347.304688 534.59375 350.945312 C 536.585938 354.527344 541.980469 365.699219 542.996094 368.351562 C 543.492188 369.644531 544.097656 371.125 544.339844 371.644531 C 545.199219 373.484375 548.035156 382.519531 548.84375 385.992188 C 549.292969 387.929688 549.839844 389.871094 550.058594 390.304688 C 550.441406 391.066406 550.800781 393.066406 552.085938 401.585938 C 552.421875 403.824219 552.859375 405.910156 553.050781 406.226562 C 554.417969 408.433594 554.046875 439.359375 552.570312 446.191406 C 551.628906 450.5625 551.917969 450.375 548.699219 448.710938 C 544.078125 446.3125 539.539062 445.601562 536.785156 446.84375 C 535.753906 447.308594 526.5625 437.96875 523.898438 433.746094 C 523.414062 432.980469 522.835938 432.132812 522.617188 431.867188 C 521.714844 430.773438 517.199219 424.753906 515.941406 422.960938 C 515.195312 421.902344 514.453125 420.929688 514.292969 420.800781 C 513.804688 420.402344 510.621094 415.480469 509.808594 413.863281 C 508.953125 412.164062 502.816406 405.789062 499.890625 403.570312 C 495.132812 399.957031 489.789062 400.730469 486.917969 405.453125 C 486.4375 406.242188 484.273438 408.699219 482.109375 410.90625 C 478.65625 414.429688 477.835938 415.617188 475.441406 420.566406 C 471.804688 428.070312 470.9375 429.367188 468.023438 431.644531 C 466.664062 432.707031 464.847656 434.144531 463.988281 434.832031 C 463.125 435.523438 461.464844 437.730469 460.300781 439.734375 C 457.941406 443.789062 458.007812 443.75 455.558594 442.4375 C 454.273438 441.746094 452.90625 441.496094 450.421875 441.496094 C 446.695312 441.496094 446.078125 441.160156 445.121094 438.597656 C 443.925781 435.398438 443.378906 434.574219 433.792969 421.589844 C 430.003906 416.457031 429.648438 416.019531 424.628906 410.289062 C 416.742188 401.289062 411.820312 395.125 406.605469 387.71875 C 392.421875 367.570312 384.683594 365.824219 374.804688 380.546875 C 372.882812 383.414062 369.019531 388.210938 366.21875 391.210938 C 363.417969 394.214844 360.488281 397.5625 359.710938 398.65625 C 358.9375 399.75 357.867188 401.210938 357.339844 401.902344 C 356.8125 402.59375 355.515625 404.535156 354.464844 406.21875 C 353.410156 407.898438 351.621094 410.757812 350.484375 412.566406 C 347.765625 416.90625 340.613281 427.554688 340.21875 427.855469 C 340.050781 427.984375 339.398438 428.832031 338.773438 429.738281 C 334.878906 435.382812 332.371094 436.914062 329.445312 435.421875 C 327.34375 434.347656 322.679688 434.105469 319.289062 434.894531 C 316.980469 435.429688 316.25 435.046875 314.617188 432.464844 C 313.90625 431.34375 312.566406 429.90625 311.640625 429.269531 C 310.679688 428.613281 308.683594 426.167969 307.015625 423.605469 C 299.109375 411.464844 287.804688 410.726562 281.988281 421.976562 C 281.585938 422.753906 281.105469 423.492188 280.917969 423.621094 C 280.730469 423.75 280.09375 424.804688 279.507812 425.964844 C 275.074219 434.707031 264.023438 447.925781 261.5625 447.433594 C 260.761719 447.273438 259.527344 447.140625 258.824219 447.140625 C 257.3125 447.140625 256.828125 444.578125 255.910156 431.726562 C 255.160156 421.257812 257.066406 399.828125 259.46875 391.710938 C 259.824219 390.503906 260.375 388.355469 260.691406 386.929688 C 261.664062 382.5625 266.277344 369.152344 268.300781 364.824219 C 271.113281 358.792969 275.507812 350.207031 276.15625 349.464844 C 276.417969 349.167969 277.023438 348.214844 277.503906 347.347656 C 277.980469 346.480469 279.210938 344.53125 280.234375 343.011719 C 281.257812 341.492188 282.625 339.449219 283.273438 338.472656 C 288.152344 331.082031 298.1875 319.96875 306.320312 312.933594 C 309.039062 310.585938 311.621094 308.332031 312.0625 307.929688 C 312.828125 307.234375 313.6875 306.585938 318.550781 303.058594 C 319.714844 302.210938 322.363281 300.476562 324.433594 299.203125 C 326.5 297.925781 328.304688 296.730469 328.4375 296.546875 C 328.824219 296.007812 343.160156 288.851562 346.652344 287.453125 C 348.402344 286.753906 350.46875 285.890625 351.246094 285.539062 C 352.734375 284.859375 361.230469 282.054688 364.414062 281.1875 C 365.449219 280.90625 367.355469 280.359375 368.648438 279.972656 C 371.152344 279.222656 375.050781 278.496094 380.410156 277.773438 C 382.21875 277.53125 384.761719 277.117188 386.054688 276.855469 C 390.464844 275.957031 414.070312 275.621094 420.394531 276.363281 M 375.855469 452.402344 C 372.410156 455.292969 367.847656 459.234375 365.714844 461.15625 C 361.492188 464.96875 361.398438 464.992188 357.359375 463.445312 C 334.617188 454.742188 333.496094 455.132812 341.375 469.015625 C 347.214844 479.3125 347.171875 478.949219 343.101562 483.128906 C 339.699219 486.625 332.140625 495.394531 329.4375 498.976562 C 325.976562 503.566406 327.273438 505.109375 332.726562 502.898438 C 334.371094 502.226562 338.152344 501.027344 341.128906 500.230469 C 344.105469 499.433594 348.398438 498.285156 350.671875 497.675781 C 356.117188 496.222656 355.394531 495.515625 361.804688 508.597656 C 368.167969 521.582031 368.957031 522.875 370.503906 522.875 C 372.265625 522.875 372.519531 522.113281 373.808594 512.992188 C 374.921875 505.105469 376.0625 497.3125 376.675781 493.40625 C 376.960938 491.582031 376.710938 491.675781 386.5 489.695312 C 405.007812 485.945312 406.460938 484.898438 398.285156 481.183594 C 395.699219 480.007812 392.097656 478.359375 390.289062 477.519531 C 388.476562 476.683594 385.761719 475.488281 384.25 474.871094 C 381 473.542969 380.4375 472.734375 381.066406 470.308594 C 382.65625 464.207031 384.515625 449.265625 383.855469 447.964844 C 383.128906 446.539062 382.28125 447.007812 375.855469 452.402344 M 377.820312 457.464844 C 377.820312 457.964844 377.609375 458.507812 377.351562 458.667969 C 377.09375 458.828125 376.882812 459.382812 376.882812 459.898438 C 376.882812 460.417969 377.09375 460.707031 377.351562 460.550781 C 377.609375 460.390625 377.820312 459.800781 377.820312 459.246094 C 377.820312 458.308594 377.882812 458.289062 378.585938 458.996094 C 379.402344 459.8125 379.230469 461 377.042969 469.488281 C 376.382812 472.058594 374.921875 474.425781 373.996094 474.425781 C 373.796875 474.425781 372.855469 474.953125 371.90625 475.59375 C 369.003906 477.566406 368.390625 475.753906 370.765625 472.234375 C 371.542969 471.085938 372.175781 469.921875 372.175781 469.648438 C 372.175781 469.375 372.765625 468.273438 373.488281 467.203125 C 375.039062 464.894531 376.101562 462.445312 375.867188 461.734375 C 375.769531 461.453125 374.851562 462.871094 373.820312 464.886719 C 372.785156 466.898438 371.785156 468.617188 371.589844 468.703125 C 371.394531 468.789062 371.238281 469.25 371.238281 469.726562 C 371.238281 470.207031 370.960938 470.875 370.621094 471.214844 C 370.082031 471.761719 368.980469 473.664062 367.945312 475.835938 C 367.175781 477.449219 362.882812 477.472656 361.480469 475.875 C 360.78125 475.078125 360.019531 474.425781 359.792969 474.425781 C 359.5625 474.425781 358.5 473.738281 357.429688 472.902344 C 356.355469 472.0625 355.203125 471.164062 354.867188 470.902344 C 354.53125 470.640625 353.894531 470.097656 353.457031 469.6875 C 353.015625 469.28125 351.121094 467.824219 349.246094 466.449219 C 342.964844 461.839844 344.375 461.722656 354.628906 465.996094 C 358.300781 467.527344 361.496094 468.78125 361.730469 468.78125 C 362.636719 468.78125 363.640625 470.527344 363.957031 472.660156 C 364.136719 473.890625 364.492188 474.894531 364.742188 474.894531 C 365.226562 474.894531 364.921875 472.847656 364.0625 470.351562 C 363.34375 468.257812 363.96875 467.46875 371.042969 461.554688 C 377.347656 456.285156 377.820312 456 377.820312 457.464844 M 346.09375 465.203125 C 346.625 465.746094 350.484375 468.734375 354.675781 471.839844 C 363.800781 478.601562 363.890625 478.84375 357.328125 479.027344 L 352.601562 479.160156 L 351.179688 477.382812 C 349.160156 474.855469 343.011719 464.910156 343.011719 464.164062 C 343.011719 463.308594 344.855469 463.925781 346.09375 465.203125 M 381.113281 477.671875 C 384.089844 478.9375 386.914062 480.101562 387.386719 480.257812 C 389.652344 481.003906 387.722656 481.714844 383.695312 481.617188 C 380.914062 481.546875 379.703125 481.671875 380.019531 481.988281 C 380.28125 482.246094 382.3125 482.535156 384.535156 482.628906 C 391.253906 482.910156 394.671875 484.804688 389.699219 485.496094 C 388.472656 485.667969 384.855469 486.316406 381.671875 486.9375 C 375.0625 488.222656 375.226562 488.261719 371.726562 484.703125 C 368.554688 481.484375 369.003906 480.765625 373.929688 481.179688 C 375.8125 481.339844 377.351562 481.289062 377.351562 481.0625 C 377.351562 480.511719 374.929688 480.070312 371.882812 480.070312 C 368.609375 480.070312 368.417969 478.90625 371.355469 476.847656 C 374.070312 474.945312 374.878906 475.015625 381.113281 477.671875 M 362.125 480.210938 C 362.589844 480.675781 361.328125 482.894531 360.597656 482.894531 C 360.265625 482.894531 359.054688 483.527344 357.902344 484.304688 C 356.753906 485.082031 355.695312 485.714844 355.550781 485.714844 C 355.40625 485.714844 354.347656 486.351562 353.199219 487.125 C 352.050781 487.902344 350.992188 488.539062 350.847656 488.539062 C 350.703125 488.539062 349.644531 489.171875 348.496094 489.949219 C 347.34375 490.726562 346.285156 491.359375 346.144531 491.359375 C 346 491.359375 344.972656 491.941406 343.859375 492.652344 C 342.746094 493.363281 341.414062 494.214844 340.894531 494.539062 C 335 498.238281 335.082031 496.914062 341.164062 490.183594 C 347.644531 483.011719 350.246094 480.304688 350.980469 479.972656 C 351.90625 479.554688 361.679688 479.761719 362.125 480.210938 M 370.472656 484.671875 C 371.28125 485.59375 372.230469 486.636719 372.582031 486.988281 C 373.445312 487.855469 373.398438 488.617188 371.980469 496.769531 C 371.304688 500.652344 370.640625 504.515625 370.503906 505.355469 C 370.113281 507.746094 369.515625 507.160156 369.066406 503.941406 L 368.652344 501.003906 L 368.515625 505.121094 C 368.316406 511.003906 367.734375 510.621094 363.257812 501.6875 C 359.472656 494.136719 358.863281 491.984375 360.183594 490.890625 C 360.570312 490.566406 360.886719 490.097656 360.886719 489.84375 C 360.886719 489.589844 361.523438 488.4375 362.300781 487.289062 C 363.074219 486.140625 363.710938 484.867188 363.710938 484.460938 C 363.710938 483.925781 364.039062 483.785156 364.902344 483.953125 C 365.75 484.113281 366.234375 483.921875 366.578125 483.277344 C 367.234375 482.054688 368.609375 482.546875 370.472656 484.671875 M 362.859375 484.085938 C 362.777344 484.59375 362.300781 485.582031 361.800781 486.285156 C 361.296875 486.984375 360.886719 487.777344 360.886719 488.046875 C 360.886719 488.316406 360.699219 488.539062 360.46875 488.539062 C 360.238281 488.539062 359.921875 489.039062 359.769531 489.652344 C 359.464844 490.859375 357.261719 491.96875 352.183594 493.460938 C 350.632812 493.917969 347.78125 494.796875 345.847656 495.414062 C 339.871094 497.320312 339.484375 495.902344 345.191406 492.992188 C 346.191406 492.484375 347.117188 491.960938 347.246094 491.832031 C 347.625 491.453125 349.269531 490.457031 350.539062 489.839844 C 351.1875 489.527344 352.90625 488.46875 354.359375 487.492188 C 355.8125 486.515625 357.128906 485.714844 357.28125 485.714844 C 357.4375 485.714844 358.46875 485.082031 359.578125 484.3125 C 361.816406 482.753906 363.082031 482.664062 362.859375 484.085938 M 366.8125 491.359375 C 366.96875 494.335938 367.253906 496.9375 367.449219 497.144531 C 367.929688 497.65625 367.449219 488.074219 366.9375 486.890625 C 366.695312 486.335938 366.644531 488.164062 366.8125 491.359375 " fill-opacity="1" fill-rule="evenodd"/><path fill="#a0afc1" d="M 384.308594 379.757812 C 383.636719 380.46875 381.867188 382.851562 380.378906 385.050781 C 377.070312 389.9375 376.269531 390.925781 372.011719 395.402344 C 367.382812 400.265625 358.066406 412.652344 358.066406 413.945312 C 358.066406 414.300781 346.683594 431.28125 345.160156 433.199219 C 337.203125 443.210938 332.308594 445.808594 327.457031 442.59375 C 325.851562 441.53125 325.300781 441.414062 323.140625 441.675781 C 314.117188 442.765625 312.941406 442.453125 310.027344 438.203125 C 309.050781 436.78125 307.320312 434.875 306.175781 433.972656 C 304.210938 432.414062 301.710938 429.179688 300.277344 426.339844 C 296.320312 418.5 290.472656 420.230469 285.074219 430.835938 C 279.652344 441.492188 266.117188 456.164062 262.421875 455.394531 C 257.035156 454.277344 255.414062 454.808594 251.492188 458.972656 C 247.507812 463.207031 245.578125 466.324219 240.910156 476.070312 C 238.960938 480.140625 236.25 483.800781 231.277344 489.070312 C 218.925781 502.15625 217.777344 508.433594 229.503906 498.769531 C 231.367188 497.234375 232.953125 495.796875 233.03125 495.578125 C 233.109375 495.359375 234.445312 493.832031 235.996094 492.1875 C 239.046875 488.957031 242.945312 484.667969 244.484375 482.851562 C 245.011719 482.226562 247.847656 478.964844 250.789062 475.601562 C 253.730469 472.238281 256.703125 468.828125 257.402344 468.023438 C 258.566406 466.679688 258.953125 466.542969 262.285156 466.332031 C 265.996094 466.089844 268.6875 464.605469 268.6875 462.792969 C 268.6875 462.441406 270.558594 460.203125 272.84375 457.824219 C 275.128906 455.441406 277.742188 452.328125 278.648438 450.90625 C 289.246094 434.273438 290.988281 433.371094 298.3125 440.695312 C 304.960938 447.34375 305.535156 449.832031 302.042969 456.875 C 299.171875 462.667969 298.65625 465.207031 300.140625 466.246094 C 302.832031 468.132812 300.386719 472.042969 293.714844 476.519531 C 289.582031 479.296875 287.511719 483.117188 287.496094 488.007812 C 287.476562 493.515625 281.234375 500.9375 271.734375 506.746094 C 260.089844 513.863281 258.3125 515.488281 260.746094 516.789062 C 263.78125 518.414062 271.765625 514.339844 287.976562 502.886719 C 289.398438 501.878906 291.515625 500.417969 292.679688 499.636719 C 296.113281 497.335938 302.375 490.222656 306.59375 483.832031 C 309.375 479.617188 319.480469 465.894531 323.492188 460.890625 C 327.140625 456.335938 327.800781 455.886719 329.554688 456.796875 C 331.636719 457.878906 336.382812 457.273438 338.539062 455.648438 C 338.800781 455.453125 340.355469 454.804688 341.992188 454.203125 C 344.304688 453.359375 345.796875 452.335938 348.691406 449.613281 C 352.097656 446.410156 353.839844 444.097656 358.535156 436.558594 C 360.328125 433.683594 364.863281 429.132812 370.101562 424.953125 C 374.238281 421.652344 375.496094 420.171875 377.332031 416.445312 C 382.863281 405.207031 387.824219 404.03125 395.050781 412.238281 C 396.804688 414.230469 399.761719 417.34375 401.625 419.15625 C 403.90625 421.375 405.414062 423.324219 406.238281 425.125 C 406.910156 426.597656 407.683594 427.941406 407.960938 428.113281 C 411.683594 430.414062 411.894531 434 408.75 441.492188 L 406.28125 447.378906 L 401.046875 452.65625 C 390.78125 463.019531 391.449219 464.246094 407.808594 465.03125 C 423.332031 465.78125 423.039062 465.691406 421.75 469.144531 C 418.96875 476.597656 413.09375 484.316406 404.96875 491.1875 C 401.582031 494.054688 398.835938 496.746094 398.6875 497.347656 C 397.992188 500.105469 400.046875 502.027344 402.4375 500.859375 C 407.273438 498.488281 410.691406 497.230469 414.433594 496.445312 C 419.855469 495.304688 423.960938 493.488281 426.785156 490.976562 C 427.972656 489.921875 429.878906 488.703125 431.019531 488.261719 C 432.160156 487.820312 434.003906 486.589844 435.113281 485.53125 C 437.023438 483.703125 437.273438 483.605469 439.703125 483.710938 C 446.371094 484 447.433594 486.402344 443.699219 492.734375 C 437.703125 502.90625 437.949219 504.210938 445.222656 500.789062 C 447.445312 499.742188 449.859375 498.882812 450.589844 498.882812 C 452.535156 498.875 456.203125 496.890625 459.671875 493.960938 C 466.953125 487.820312 479.300781 486.964844 487.222656 492.054688 C 487.757812 492.398438 489.554688 493.109375 491.21875 493.628906 C 496.871094 495.402344 507.648438 501.589844 522.816406 511.769531 C 533.515625 518.953125 534.464844 519.480469 534.464844 518.257812 C 534.464844 517.386719 532.09375 514.996094 525.753906 509.46875 C 523.972656 507.917969 522.183594 506.332031 521.777344 505.941406 C 521.371094 505.554688 519.035156 503.460938 516.582031 501.289062 C 514.128906 499.117188 510.957031 496.253906 509.535156 494.925781 C 508.109375 493.597656 505.253906 491.035156 503.183594 489.230469 C 501.113281 487.425781 499.316406 485.839844 499.183594 485.703125 C 499.054688 485.566406 495.5625 482.402344 491.421875 478.675781 C 487.285156 474.949219 482.140625 470.3125 479.988281 468.367188 C 477.839844 466.425781 475.511719 464.488281 474.816406 464.0625 C 473.1875 463.070312 468.605469 458.398438 468.625 457.75 C 468.636719 457.476562 469.71875 456.09375 471.03125 454.667969 C 475.835938 449.460938 480.15625 443.800781 481.515625 440.925781 C 482.714844 438.394531 491.523438 429.738281 492.902344 429.738281 C 493.6875 429.738281 494.667969 430.597656 496.382812 432.777344 C 497.695312 434.449219 500.417969 437.175781 502.433594 438.84375 C 508.65625 443.992188 509.21875 446.445312 505.472656 452.128906 C 504.601562 453.449219 503.890625 454.6875 503.890625 454.878906 C 503.890625 455.8125 499.875 460.769531 497.769531 462.429688 C 495.304688 464.375 494.421875 466.089844 495.386719 467.050781 C 496.039062 467.703125 503.882812 467.574219 506.324219 466.875 C 509.066406 466.089844 519.695312 466.308594 520.554688 467.167969 C 522.441406 469.054688 518.898438 476.984375 515.300781 478.921875 C 511.632812 480.898438 509.941406 485.328125 512.597656 485.992188 C 515.316406 486.675781 528.550781 483.203125 531.394531 481.058594 C 531.660156 480.859375 533.3125 480.097656 535.070312 479.363281 C 539.027344 477.714844 539.613281 478.027344 538.808594 481.359375 C 537.257812 487.753906 537.761719 490.929688 540.203125 490.15625 C 543.175781 489.210938 545.761719 487.644531 548.398438 485.191406 C 552.089844 481.757812 553.445312 481.546875 557.984375 483.710938 C 560.207031 484.769531 565.082031 487.523438 567.394531 489.023438 C 567.78125 489.273438 569.367188 490.089844 570.921875 490.839844 C 574.324219 492.476562 580.457031 496.578125 587.148438 501.6875 C 606.761719 516.660156 580.75 483.371094 557.851562 464.191406 C 545.585938 453.917969 541.992188 452.136719 537.296875 454.015625 C 536.164062 454.46875 534.910156 454.648438 534.164062 454.460938 C 531.816406 453.871094 520.242188 441.425781 515.546875 434.441406 C 515.109375 433.796875 513.105469 431.097656 511.085938 428.445312 C 506.816406 422.832031 505.757812 421.289062 504.316406 418.570312 C 502.984375 416.0625 495.847656 409.039062 494.628906 409.039062 C 494.128906 409.039062 493.214844 409.726562 492.601562 410.570312 C 491.984375 411.410156 491.046875 412.402344 490.511719 412.773438 C 487.367188 414.96875 483.949219 419.355469 481.347656 424.539062 C 479.847656 427.527344 478.316406 430.53125 477.941406 431.214844 C 476.84375 433.226562 474.515625 435.664062 471.460938 437.984375 C 468.859375 439.964844 467.511719 441.445312 465.921875 444.085938 C 465.613281 444.601562 464.789062 445.976562 464.097656 447.140625 C 461.085938 452.210938 459.746094 452.714844 455.511719 450.378906 C 453.449219 449.242188 452.003906 448.832031 449.085938 448.570312 C 443.710938 448.082031 438.972656 445.269531 438.972656 442.558594 C 438.972656 441.515625 436.460938 437.199219 433.425781 433.03125 C 431.828125 430.832031 429.832031 428.078125 428.996094 426.914062 C 426.558594 423.527344 422.113281 418.058594 418.289062 413.746094 C 411.253906 405.808594 409.363281 403.480469 402.257812 393.988281 C 390.597656 378.410156 387.722656 376.132812 384.308594 379.757812 M 391.683594 382.34375 C 393.25 383.960938 395.707031 386.871094 397.148438 388.8125 C 406.179688 400.992188 408.445312 403.886719 414.074219 410.453125 C 417.515625 414.460938 420.460938 417.847656 420.625 417.976562 C 421.273438 418.5 427.152344 425.949219 428.625 428.121094 C 429.492188 429.398438 431.355469 431.988281 432.765625 433.875 C 434.171875 435.761719 436.242188 439.175781 437.363281 441.464844 C 440.382812 447.636719 442.503906 449.113281 449.324219 449.792969 C 451.390625 450 453.40625 450.609375 455.542969 451.675781 C 460.515625 454.160156 461.511719 453.613281 466.058594 445.886719 C 468.199219 442.246094 469.246094 441.007812 472.054688 438.804688 C 476.710938 435.148438 478.257812 433.105469 481.9375 425.773438 C 485.066406 419.539062 486.90625 417.101562 491.261719 413.421875 C 492.207031 412.625 493.21875 411.523438 493.511719 410.976562 C 493.804688 410.429688 494.324219 409.980469 494.667969 409.980469 C 495.347656 409.980469 501.832031 416.355469 502.613281 417.792969 C 505.953125 423.929688 520.4375 443.007812 526.445312 449.1875 C 532.101562 455.003906 533.363281 455.835938 535.820312 455.386719 C 541.980469 454.257812 542.839844 454.40625 547.402344 457.402344 C 558.664062 464.796875 581.144531 486.949219 590.148438 499.523438 C 594.449219 505.527344 593.832031 505.554688 586.09375 499.695312 C 578.566406 493.992188 576.886719 492.867188 572.078125 490.304688 C 569.871094 489.125 566.90625 487.476562 565.492188 486.644531 C 554.175781 479.957031 552.726562 479.761719 547.960938 484.253906 C 545.292969 486.769531 542.617188 488.34375 540.160156 488.832031 C 538.359375 489.195312 538.402344 489.769531 539.652344 482.367188 C 540.523438 477.222656 539.433594 476.03125 535.59375 477.921875 C 525.121094 483.078125 513.414062 486.507812 512.691406 484.632812 C 512.25 483.476562 513.699219 481.066406 515.546875 479.902344 C 520.023438 477.074219 523.703125 468.652344 521.449219 466.398438 C 520.546875 465.492188 512.5625 464.886719 508.796875 465.441406 C 496.585938 467.230469 494.492188 466.6875 498.910156 462.871094 C 501.472656 460.660156 504.832031 456.292969 504.832031 455.171875 C 504.832031 454.839844 505.425781 453.796875 506.15625 452.855469 C 510.480469 447.261719 509.6875 443.28125 503.234375 438.207031 C 501.582031 436.910156 499.023438 434.375 497.554688 432.578125 C 493.441406 427.550781 492.8125 427.527344 487.960938 432.25 C 482.832031 437.234375 482.214844 437.964844 479.898438 441.769531 C 477.804688 445.210938 473.554688 450.578125 469.683594 454.667969 C 466.65625 457.867188 467.339844 459.664062 473.300781 464.171875 C 474.988281 465.449219 484.023438 473.371094 493.375 481.773438 C 502.726562 490.171875 510.90625 497.515625 511.554688 498.085938 C 513.019531 499.378906 524.105469 509.339844 526.675781 511.667969 C 530.230469 514.894531 528.03125 513.984375 521.242188 509.417969 C 510.789062 502.394531 493.972656 492.769531 492.144531 492.769531 C 491.859375 492.769531 490.3125 492.210938 488.703125 491.527344 C 475.121094 485.742188 466.953125 486.359375 458.023438 493.839844 C 454.859375 496.496094 452.097656 497.917969 450.09375 497.933594 C 449.351562 497.941406 447.160156 498.6875 445.226562 499.59375 C 439.949219 502.0625 439.699219 501.488281 443.375 495.359375 C 448.902344 486.148438 448.003906 482.894531 439.941406 482.894531 C 436.382812 482.894531 436.324219 482.914062 434.570312 484.710938 C 433.59375 485.710938 432.007812 486.761719 431.050781 487.050781 C 430.089844 487.335938 428.167969 488.542969 426.78125 489.726562 C 423.042969 492.914062 419.039062 494.667969 413.808594 495.40625 C 411.625 495.710938 407.269531 497.335938 403.929688 499.082031 C 398.191406 502.085938 398.136719 498.003906 403.855469 493.480469 C 412.363281 486.746094 417.257812 480.804688 421.683594 471.839844 C 424.855469 465.410156 424.203125 464.773438 413.988281 464.363281 C 403.660156 463.945312 396.28125 463.132812 395.617188 462.335938 C 394.714844 461.25 396.515625 458.660156 402.058594 453.074219 C 405.628906 449.472656 407.507812 447.191406 408.097656 445.730469 C 408.570312 444.566406 409.566406 442.292969 410.316406 440.679688 C 412.847656 435.21875 412.734375 432.007812 409.878906 428.730469 C 408.898438 427.601562 407.472656 425.433594 406.714844 423.910156 C 405.855469 422.183594 404.40625 420.328125 402.859375 418.972656 C 401.492188 417.777344 398.820312 414.988281 396.921875 412.769531 C 387.894531 402.234375 382.429688 403.449219 375.605469 417.507812 C 374.480469 419.824219 372.953125 421.382812 367.164062 426.132812 C 362.71875 429.773438 359.183594 433.511719 357.285156 436.582031 C 350.976562 446.773438 346.46875 451.636719 342.039062 453.03125 C 341.410156 453.226562 339.835938 453.875 338.542969 454.472656 C 334.511719 456.332031 332.476562 456.679688 330.507812 455.859375 C 327.84375 454.746094 327.277344 454.941406 324.589844 457.914062 C 322.230469 460.519531 319.742188 463.851562 309.433594 478.1875 C 298.21875 493.796875 296.109375 496.203125 290.175781 500.160156 C 287.546875 501.917969 284.527344 504.011719 283.476562 504.816406 C 282.421875 505.621094 281.363281 506.363281 281.121094 506.464844 C 280.882812 506.566406 278.886719 507.839844 276.6875 509.300781 C 270.597656 513.339844 264.511719 516.292969 262.28125 516.292969 C 260.417969 516.292969 260.980469 514.78125 263.414062 513.257812 C 282.859375 501.09375 287.617188 496.339844 288.453125 488.25 C 289.117188 481.800781 289.914062 480.59375 296.914062 475.429688 C 301.609375 471.964844 303.414062 467.773438 301.109375 465.6875 C 299.816406 464.519531 300.0625 463.445312 303.054688 457.144531 C 306.488281 449.910156 305.796875 446.640625 299.488281 440.335938 C 291.390625 432.238281 288.195312 433.460938 279.242188 448.082031 C 277.59375 450.777344 274.867188 454.257812 272.371094 456.851562 C 270.097656 459.21875 268.027344 461.695312 267.777344 462.355469 C 267.074219 464.210938 265.238281 465.121094 261.710938 465.371094 C 257.820312 465.652344 258.457031 465.152344 251.066406 473.71875 C 247.722656 477.601562 243.066406 482.898438 240.726562 485.496094 C 238.382812 488.089844 235.195312 491.664062 233.644531 493.433594 C 229.550781 498.109375 223.0625 502.871094 223.0625 501.203125 C 223.0625 500.414062 227.832031 494.316406 231.5 490.417969 C 237.4375 484.109375 240.964844 479.042969 243.351562 473.398438 C 247.828125 462.820312 255.722656 454.675781 260.199219 456.019531 C 262.90625 456.828125 264.082031 456.671875 266.363281 455.207031 C 270.726562 452.402344 279.070312 442.476562 284.453125 433.6875 C 291.582031 422.054688 293.160156 420.695312 296.382812 423.410156 C 297.683594 424.503906 301.613281 429.910156 301.621094 430.613281 C 301.625 431.082031 304.28125 433.800781 306.066406 435.164062 C 306.953125 435.839844 308.363281 437.457031 309.195312 438.753906 C 312.066406 443.226562 315.890625 444.261719 323.621094 442.648438 C 324.847656 442.394531 325.550781 442.589844 327.078125 443.597656 C 333.652344 447.949219 340.683594 442.5 353.144531 423.386719 C 367.5 401.363281 366.855469 402.253906 373.808594 394.90625 C 376.144531 392.433594 379.308594 388.519531 380.835938 386.203125 C 386.222656 378.039062 387.179688 377.695312 391.683594 382.34375 " fill-opacity="1" fill-rule="evenodd"/></svg>